<!DOCTYPE svg PUBLIC "-//W3C//DTD SVG 20010904//EN" "http://www.w3.org/TR/2001/REC-SVG-20010904/DTD/svg10.dtd">
<svg version="1.0" xmlns="http://www.w3.org/2000/svg" width="597px" height="749px" viewBox="0 0 5970 7490" preserveAspectRatio="xMidYMid meet">
<g id="layer101" fill="#423937" stroke="none">
 <path d="M0 7182 l0 -308 98 -41 c53 -24 133 -56 177 -72 44 -16 114 -43 155 -61 105 -44 302 -112 455 -159 159 -48 399 -116 441 -125 35 -8 98 -73 245 -256 100 -123 143 -185 154 -220 4 -14 17 -33 29 -43 20 -17 20 -18 1 -15 -13 2 -19 -2 -17 -11 1 -7 -5 -19 -14 -26 -10 -7 -15 -19 -12 -27 4 -9 -1 -14 -15 -15 -11 -1 -24 -6 -30 -12 -11 -11 0 -34 14 -26 8 6 13 -8 10 -27 0 -4 10 -15 23 -26 35 -27 34 -43 -1 -81 -20 -21 -29 -40 -25 -50 5 -14 3 -14 -11 -2 -15 12 -18 10 -27 -14 -5 -14 -10 -32 -10 -39 0 -7 -3 -16 -7 -20 -5 -4 -9 -22 -10 -39 -2 -38 -17 -115 -28 -140 -4 -11 0 -27 11 -45 10 -15 17 -34 16 -43 -2 -9 4 -22 13 -29 23 -19 18 -28 -17 -32 -21 -2 -33 -9 -34 -18 -1 -22 16 -51 25 -45 15 9 33 -23 23 -40 -5 -9 -13 -16 -18 -15 -19 4 -15 -22 5 -27 l22 -6 -21 -14 c-13 -9 -19 -21 -15 -30 3 -9 -3 -30 -14 -48 l-19 -33 28 -21 c25 -18 27 -23 17 -45 -10 -20 -14 -22 -20 -10 -14 24 -29 4 -22 -29 5 -24 4 -28 -4 -17 -6 8 -11 29 -11 47 0 34 -17 53 -26 30 -8 -23 -8 -79 1 -116 7 -29 6 -33 -8 -28 -15 5 -42 -15 -32 -24 2 -3 0 -22 -5 -43 -6 -27 -4 -50 6 -78 17 -48 17 -48 5 -48 -5 0 -11 10 -14 22 -6 22 -6 21 -33 -5 -26 -26 -26 -30 -20 -101 6 -65 4 -78 -15 -110 -20 -35 -20 -37 -4 -102 9 -36 14 -73 10 -82 -3 -10 -8 -78 -11 -152 -2 -74 -8 -144 -13 -155 -18 -38 -31 -88 -31 -115 0 -33 24 -58 36 -39 5 9 9 7 14 -7 4 -10 3 -24 -2 -31 -12 -15 -6 -117 7 -120 6 -2 11 2 11 7 1 6 2 11 3 13 1 1 4 34 6 72 2 39 9 90 15 115 6 25 14 65 16 90 2 25 11 62 19 83 8 20 15 48 15 62 0 13 4 26 9 29 4 3 11 32 15 64 4 32 12 67 19 78 7 10 19 39 26 64 7 25 17 56 21 70 10 34 28 116 35 167 4 24 11 45 16 49 5 3 9 16 9 29 0 13 5 27 10 30 6 4 8 10 6 14 -3 4 4 20 15 37 10 16 19 25 19 19 0 -5 9 1 20 15 16 20 22 23 37 14 21 -13 63 9 63 32 0 8 17 37 37 64 20 27 38 56 39 63 1 8 14 32 29 55 26 39 28 40 78 37 29 -1 65 -7 80 -14 16 -6 32 -9 37 -6 4 3 20 -5 34 -16 31 -25 56 -19 56 13 1 13 14 39 30 58 17 19 30 42 30 51 0 9 7 22 16 30 8 7 13 21 11 31 -3 11 0 18 9 18 8 0 35 19 60 42 45 41 46 42 117 40 40 -1 88 -8 107 -16 19 -8 53 -19 75 -25 58 -16 105 -47 105 -71 0 -13 -14 -26 -40 -40 -22 -11 -48 -33 -57 -48 -10 -15 -50 -63 -90 -106 -55 -60 -70 -82 -62 -92 7 -9 18 -10 34 -4 17 6 27 5 35 -6 17 -19 37 -18 49 4 5 9 11 16 13 14 3 -4 31 5 63 18 11 5 38 12 60 15 22 3 57 10 78 16 26 7 78 6 170 -2 257 -23 246 -22 253 -4 7 17 -2 28 -78 103 -95 93 -107 101 -160 102 -38 0 -88 18 -88 30 0 14 31 33 58 36 15 2 36 15 48 29 20 25 22 26 26 7 5 -17 11 -19 46 -12 22 4 47 3 55 -1 9 -6 26 -3 43 6 32 16 70 20 78 6 3 -4 38 -11 78 -15 45 -4 75 -12 80 -20 5 -9 24 -14 52 -14 35 1 52 -5 85 -31 23 -18 41 -38 41 -44 0 -6 8 -19 17 -29 16 -18 21 -31 27 -68 1 -8 6 -15 11 -15 6 0 8 6 7 14 -3 10 4 12 26 8 24 -5 33 -2 44 15 10 15 25 21 60 22 45 1 47 0 67 -42 14 -27 32 -48 51 -55 16 -7 42 -32 58 -55 47 -70 134 -163 149 -158 7 3 17 -4 23 -14 6 -11 20 -20 30 -20 13 0 20 -7 20 -19 0 -10 7 -25 16 -32 19 -16 34 -52 40 -99 2 -19 11 -44 19 -57 8 -12 15 -32 15 -43 0 -11 4 -28 9 -38 20 -38 42 -113 40 -134 -2 -13 0 -28 4 -35 4 -6 10 -33 13 -60 4 -26 12 -52 19 -58 11 -9 32 -97 40 -170 18 -153 23 -375 16 -670 -3 -145 5 -423 13 -455 4 -14 2 -39 -5 -55 -7 -17 -13 -37 -14 -45 -1 -8 -7 -28 -13 -43 -7 -16 -12 -45 -12 -65 0 -20 -5 -55 -12 -77 -6 -22 -12 -42 -13 -45 0 -3 -6 -14 -12 -25 -5 -11 -21 -51 -33 -90 -23 -69 -96 -201 -125 -225 -8 -7 -15 -18 -15 -24 0 -6 -15 -27 -34 -47 -19 -19 -46 -59 -60 -89 -19 -39 -36 -59 -59 -70 -17 -8 -38 -27 -44 -41 -15 -32 -72 -61 -119 -61 -18 0 -38 -6 -45 -14 -6 -8 -18 -14 -26 -14 -7 0 -24 -7 -37 -15 -12 -8 -58 -18 -102 -21 -43 -3 -88 -9 -99 -14 -11 -4 -32 -12 -47 -18 -14 -6 -29 -8 -32 -5 -3 3 -35 7 -70 9 -35 1 -74 8 -86 14 -14 7 -25 8 -33 2 -7 -5 -34 -10 -61 -11 -26 0 -54 -5 -61 -11 -9 -7 -16 -6 -25 5 -16 19 -59 19 -66 0 -4 -10 -19 -14 -45 -13 -23 1 -46 -5 -56 -14 -24 -22 -50 -24 -100 -9 -44 12 -145 17 -160 8 -4 -3 -33 -8 -63 -11 -30 -3 -81 -11 -113 -17 -31 -5 -62 -7 -67 -4 -6 4 -13 -1 -16 -10 -6 -14 -8 -14 -31 0 -13 9 -33 13 -43 10 -11 -4 -25 -3 -31 1 -6 4 -38 8 -71 10 -63 3 -170 34 -226 66 -18 10 -38 18 -45 18 -7 0 -26 13 -43 28 -16 16 -49 42 -74 59 -87 59 -195 198 -276 354 -16 30 -49 88 -74 129 -25 41 -49 84 -53 95 -10 26 -48 210 -53 258 -2 21 -9 48 -16 60 -10 19 -21 223 -18 352 2 103 0 141 -9 171 -5 17 -5 37 -1 45 5 7 5 20 1 28 -6 14 -7 84 -1 131 3 26 -9 93 -19 103 -14 14 -24 -16 -46 -128 -9 -49 -21 -95 -26 -101 -14 -18 -40 -150 -33 -168 3 -9 1 -23 -5 -30 -12 -14 -14 -87 -10 -316 2 -120 -5 -185 -21 -205 -7 -8 -8 -20 -4 -27 10 -16 6 -59 -7 -75 -7 -7 -6 -14 1 -18 7 -4 8 -11 1 -18 -8 -11 -16 -55 -11 -67 9 -24 5 -59 -10 -75 -23 -26 -22 -56 2 -63 11 -2 17 -10 14 -18 -3 -7 -1 -16 5 -20 6 -4 4 -15 -6 -30 -15 -23 -12 -29 9 -25 5 1 4 -4 -3 -13 -10 -11 -8 -17 10 -30 21 -15 22 -16 6 -34 -16 -18 -16 -20 2 -36 10 -9 18 -29 19 -43 0 -15 6 -31 14 -37 17 -13 48 -92 53 -137 4 -31 48 -108 92 -162 13 -16 23 -33 23 -38 0 -6 18 -34 40 -63 22 -29 40 -58 40 -65 0 -6 29 -42 65 -80 36 -37 76 -82 90 -101 13 -18 44 -46 69 -64 94 -65 197 -149 208 -170 13 -24 81 -107 118 -144 14 -14 45 -34 70 -45 25 -11 64 -33 87 -48 23 -16 47 -29 54 -29 6 0 37 -17 68 -38 l56 -37 141 0 c125 1 143 3 170 21 37 26 69 34 106 27 20 -4 27 -10 24 -20 -12 -30 25 -24 63 10 60 54 163 96 188 76 12 -11 48 -9 123 7 14 3 43 5 65 5 192 -5 205 -4 300 27 28 8 64 15 82 13 32 -2 113 32 113 48 0 10 88 68 135 89 16 7 39 22 51 33 12 11 34 22 49 25 16 3 32 7 36 10 4 2 11 0 14 -6 4 -6 18 -1 37 15 16 14 35 25 43 25 13 0 66 63 69 83 2 19 57 87 66 82 4 -2 31 16 60 41 30 25 64 50 77 55 13 5 23 15 23 23 0 9 9 20 19 26 11 5 36 44 56 85 20 41 41 75 45 75 4 0 24 14 44 32 27 24 34 37 30 54 -4 16 1 28 15 41 23 19 27 53 10 85 -7 13 -7 18 -1 14 6 -3 13 -2 17 3 3 5 -3 15 -12 20 -17 11 -17 11 0 22 20 12 14 31 -8 22 -17 -6 -21 12 -5 22 6 4 -9 26 -35 53 l-47 46 33 27 c30 25 31 27 13 37 -10 6 -15 12 -11 12 4 0 3 9 -3 21 -9 16 -8 24 4 38 9 10 13 20 10 23 -3 3 1 28 9 55 10 34 13 88 10 183 -4 173 -3 166 -40 310 -4 14 -6 41 -5 60 1 19 2 55 3 80 1 25 -1 79 -5 120 -4 41 -8 91 -10 110 -4 54 -28 143 -43 161 -12 15 -47 140 -59 209 -6 39 -5 178 2 206 5 20 9 22 20 13 11 -9 18 -8 30 2 13 11 15 25 9 74 -3 33 -11 65 -16 71 -5 6 -5 14 -1 18 4 4 -1 14 -11 21 -17 12 -17 24 -7 187 13 215 14 241 2 303 -6 28 -7 82 -5 121 6 69 5 70 -26 97 -26 21 -33 36 -38 79 -5 41 -13 58 -37 80 l-31 29 23 18 24 17 -27 32 c-22 26 -25 35 -15 47 6 7 17 12 24 9 19 -7 45 19 48 51 2 25 -1 30 -19 31 -28 2 -53 21 -53 41 0 12 3 13 15 3 12 -10 17 -6 28 22 16 37 10 60 -8 35 -7 -10 -22 -17 -34 -17 -18 0 -21 4 -16 20 9 29 -2 42 -26 30 -21 -12 -26 -1 -6 19 10 10 9 15 -5 25 -10 7 -15 15 -13 18 3 3 -1 11 -10 18 -8 7 -15 17 -15 22 0 6 7 5 15 -2 11 -9 19 -9 28 -2 8 7 18 6 31 -4 20 -14 41 -10 30 7 -3 5 -1 16 5 23 11 13 6 40 -11 63 -8 9 -17 7 -39 -9 -23 -17 -26 -24 -17 -35 6 -8 7 -13 2 -12 -5 1 -12 0 -16 -1 -5 -1 -21 -3 -37 -4 -22 -1 -27 2 -19 12 6 6 16 12 22 12 7 0 22 14 34 30 13 17 29 30 36 30 7 0 19 6 25 13 25 31 -48 56 -91 31 -10 -5 -11 -4 0 7 17 18 15 58 -3 66 -14 5 -14 8 0 29 15 23 14 25 -10 34 -20 8 -25 15 -20 30 8 26 -3 44 -19 31 -6 -5 -25 -15 -41 -21 -28 -10 -28 -10 -13 7 15 17 15 21 -2 57 -20 45 -16 69 10 61 14 -4 50 28 149 136 122 134 241 245 442 416 84 71 84 71 189 93 131 28 327 86 635 188 132 44 259 85 283 92 l42 11 0 479 0 480 -885 0 c-873 0 -885 0 -885 -20 0 -23 -35 -44 -58 -34 -25 10 -95 11 -109 1 -7 -5 -25 -7 -39 -4 -16 3 -27 0 -31 -9 -3 -8 -10 -14 -16 -14 -6 0 -17 -7 -26 -15 -9 -8 -25 -22 -37 -33 -11 -10 -26 -16 -34 -14 -7 3 -18 -1 -24 -9 -24 -30 -52 -39 -74 -23 -13 9 -31 12 -46 8 -13 -3 -27 -1 -31 5 -9 16 -25 3 -18 -14 6 -17 -12 -21 -22 -5 -5 8 -11 7 -21 -1 -12 -10 -23 -4 -59 31 -37 37 -46 41 -60 30 -8 -7 -15 -22 -15 -33 0 -11 -3 -17 -7 -13 -4 4 -8 15 -8 24 0 9 -6 16 -12 15 -7 -2 -13 5 -13 15 0 9 -11 27 -25 40 -13 13 -25 33 -27 45 l-3 22 -527 2 c-586 2 -533 8 -488 -62 11 -16 23 -37 27 -45 9 -20 96 -161 141 -229 40 -61 154 -185 187 -204 12 -6 42 -25 66 -42 59 -40 78 -51 117 -69 17 -8 32 -20 32 -26 0 -6 -4 -9 -9 -5 -6 3 -15 -4 -21 -15 -13 -25 -45 -23 -45 3 0 9 -4 17 -10 16 -5 0 -9 -7 -8 -15 1 -11 -6 -9 -24 8 -23 22 -25 22 -38 5 -12 -16 -14 -15 -24 14 -14 41 -37 33 -33 -12 3 -32 3 -33 -11 -14 -12 16 -18 17 -30 7 -8 -7 -22 -10 -31 -6 -10 4 -18 0 -22 -10 -6 -17 -26 -23 -22 -7 2 5 -1 8 -7 7 -5 0 -8 -8 -7 -15 3 -13 2 -13 -14 0 -34 28 -95 -3 -87 -45 4 -18 -2 -29 -20 -41 -13 -8 -31 -14 -38 -13 -9 2 -14 -6 -14 -19 0 -13 -4 -23 -10 -23 -5 0 -10 10 -10 22 0 28 -25 36 -32 9 -6 -24 -23 -27 -42 -8 -25 24 -47 -29 -42 -99 2 -16 -3 -22 -16 -20 -11 0 -17 -5 -17 -16 2 -24 -12 -23 -19 1 -6 22 -74 38 -91 21 -8 -8 -6 -15 6 -24 20 -15 25 -33 6 -20 -7 5 -22 9 -32 9 -25 0 -30 -49 -11 -89 21 -42 19 -56 -7 -51 -13 3 -25 10 -27 16 -1 5 -14 22 -26 37 -18 21 -26 24 -35 15 -10 -9 -7 -14 9 -25 11 -7 21 -16 21 -21 0 -4 -5 -5 -10 -2 -18 11 -38 -14 -45 -56 -4 -21 -11 -41 -16 -45 -5 -3 -7 -9 -4 -14 3 -4 -2 -13 -10 -20 -8 -7 -15 -18 -15 -26 0 -10 -5 -10 -27 2 -35 18 -57 18 -72 1 -13 -16 -5 -27 20 -27 26 0 33 -19 16 -38 -8 -9 -18 -27 -21 -39 -4 -11 -13 -24 -21 -27 -9 -3 -16 -20 -17 -38 0 -18 -4 -1 -8 37 -12 109 -11 282 1 375 6 47 13 103 15 125 2 22 7 47 10 55 4 8 8 49 10 90 3 70 11 145 14 145 1 0 4 17 6 38 1 21 8 45 14 52 8 10 8 15 0 20 -8 5 -10 21 -6 44 3 20 8 56 11 80 2 25 9 49 15 55 13 13 13 43 -2 52 -6 4 -17 -1 -24 -11 -12 -16 -13 -13 -8 26 2 24 7 90 10 147 l6 102 -946 0 -946 0 0 -308z m4214 221 c3 -10 10 -54 16 -98 6 -44 20 -123 30 -175 10 -52 26 -156 35 -230 8 -74 20 -166 26 -205 6 -38 12 -149 15 -245 2 -96 6 -190 9 -208 6 -48 -13 -252 -31 -347 -15 -74 -69 -241 -83 -257 -3 -4 -17 2 -29 12 -23 19 -23 21 -8 51 17 35 13 51 -9 42 -20 -7 -45 14 -45 38 0 10 9 27 21 38 20 19 20 20 2 38 -10 10 -26 36 -36 56 -16 36 -37 42 -37 11 0 -8 -9 -14 -20 -14 -11 0 -20 4 -20 8 0 16 41 52 60 52 23 0 36 18 22 32 -5 5 -23 10 -41 10 -25 1 -29 4 -20 15 7 7 18 12 25 11 7 -2 12 2 11 7 -1 6 -5 9 -9 8 -5 -2 -7 0 -7 5 1 4 0 10 -1 15 -1 4 -3 13 -4 20 -1 6 -8 11 -15 9 -7 -1 -20 3 -28 10 -8 7 -27 12 -41 13 -25 0 -27 4 -30 45 -2 25 -10 50 -18 56 -19 15 -26 54 -13 71 17 19 3 43 -23 40 -21 -2 -23 2 -23 48 0 36 -6 59 -23 83 -13 18 -28 30 -33 26 -6 -3 -16 0 -24 6 -16 13 -39 4 -29 -11 6 -10 -22 -79 -33 -79 -3 0 -2 8 2 18 13 30 14 80 2 95 -16 21 -57 4 -57 -22 0 -27 -19 -36 -37 -18 -14 14 -14 15 3 14 13 -1 19 5 19 18 0 15 -6 19 -22 18 -25 -3 -29 7 -12 24 8 8 6 15 -8 24 -10 8 -18 23 -18 34 0 14 -6 19 -20 18 -24 -2 -37 17 -23 34 19 23 0 41 -56 53 -43 9 -56 16 -56 29 0 10 -7 24 -15 31 -8 7 -15 9 -15 5 0 -4 -7 -1 -16 6 -14 11 -18 10 -33 -10 -14 -18 -22 -21 -37 -14 -10 5 -41 21 -69 34 -28 14 -49 31 -47 38 1 7 -3 19 -9 27 -9 11 -8 14 3 14 27 0 394 191 498 259 142 94 336 211 348 211 6 0 19 11 30 25 11 13 22 22 24 19 3 -2 18 2 34 11 37 19 42 19 48 -2z m-1314 -2329 c11 -12 11 -18 -1 -29 -13 -13 -16 -11 -26 15 -9 24 -9 30 2 30 7 0 18 -7 25 -16z"/>
 <path d="M3683 6614 c-9 -23 11 -38 26 -20 13 16 7 36 -10 36 -5 0 -12 -7 -16 -16z"/>
 <path d="M3955 6270 c-4 -6 -3 -16 3 -22 6 -6 12 -6 17 2 4 6 3 16 -3 22 -6 6 -12 6 -17 -2z"/>
 <path d="M2825 6841 c-7 -12 12 -24 25 -16 11 7 4 25 -10 25 -5 0 -11 -4 -15 -9z"/>
 <path d="M2161 4640 c-77 -70 -62 -248 25 -305 16 -10 65 -21 127 -27 137 -15 196 -40 253 -109 24 -30 44 -56 44 -59 -1 -3 -19 -17 -40 -32 -44 -31 -50 -52 -20 -68 11 -6 20 -18 20 -26 0 -9 13 -29 29 -45 24 -23 38 -29 74 -29 41 0 50 5 104 58 32 31 65 66 73 77 9 11 29 33 46 48 29 26 33 27 60 13 37 -18 115 -36 158 -36 33 0 66 -21 66 -41 0 -5 -23 -6 -55 -3 -36 5 -59 3 -69 -5 -37 -31 31 -101 97 -100 54 1 63 5 127 61 52 46 53 48 36 67 -10 11 -31 23 -47 26 -35 8 -35 8 -8 54 19 33 93 91 116 91 6 0 22 9 35 20 14 10 28 17 31 13 4 -3 14 0 23 8 10 8 36 15 58 15 62 3 142 21 169 39 38 25 69 98 63 149 -7 57 -15 76 -44 109 -29 31 -55 33 -127 12 -30 -9 -66 -13 -90 -10 -34 5 -47 1 -86 -25 -61 -40 -172 -51 -264 -25 -54 15 -184 37 -210 35 -76 -4 -163 -33 -179 -59 -5 -8 -13 -7 -29 3 -12 7 -59 16 -105 20 -83 5 -111 14 -147 46 -15 13 -46 19 -120 25 -80 5 -102 10 -112 25 -18 25 -47 21 -82 -10z m1004 -148 c16 -1 34 -7 39 -12 15 -15 74 -12 141 8 54 17 128 22 140 11 2 -3 2 -14 -1 -26 -10 -36 -59 -63 -131 -72 -38 -5 -79 -13 -93 -19 -72 -28 -446 -12 -705 29 -74 12 -125 41 -125 71 0 22 -2 22 112 2 69 -12 101 -13 132 -5 28 7 44 7 53 -1 15 -12 47 8 37 23 -3 5 4 9 15 9 12 0 20 -3 19 -7 -2 -5 2 -8 7 -8 6 0 9 3 8 8 -5 13 10 7 22 -10 11 -14 17 -15 58 -4 25 7 50 10 57 6 6 -4 17 -2 24 4 7 6 34 9 60 7 25 -2 49 1 52 6 3 5 15 3 27 -4 12 -8 35 -15 52 -16z"/>
 <path d="M2157 3529 c-7 -5 -48 -12 -91 -18 -77 -9 -106 -22 -106 -47 0 -7 8 -17 18 -23 9 -5 16 -12 15 -15 -2 -3 0 -5 5 -3 4 1 6 7 4 12 -2 6 2 4 9 -2 7 -7 21 -13 32 -13 10 0 33 -11 51 -25 18 -14 35 -23 38 -20 3 3 17 0 32 -6 21 -10 29 -10 39 0 9 9 7 13 -11 17 -12 4 -22 13 -22 21 0 11 6 14 23 9 12 -3 25 -6 28 -6 3 0 6 -13 6 -30 0 -28 -3 -30 -40 -30 -31 0 -45 -7 -67 -31 -16 -16 -32 -39 -35 -50 -7 -20 -30 -26 -40 -9 -4 6 -10 8 -14 6 -4 -3 -13 -1 -21 4 -11 7 -9 11 11 18 31 12 53 38 44 52 -4 6 -14 9 -22 5 -10 -3 -22 3 -30 15 -14 20 -14 20 -41 0 -15 -11 -45 -21 -67 -22 -39 -2 -90 -21 -100 -38 -2 -4 2 -13 10 -20 12 -10 12 -15 -2 -36 -15 -23 -14 -26 8 -51 55 -62 76 -80 109 -97 51 -25 162 -48 208 -43 22 3 44 2 47 -1 7 -7 11 -8 48 -12 18 -1 16 -4 -13 -14 -23 -8 -35 -19 -35 -32 0 -13 -11 -21 -37 -27 -31 -7 -42 -5 -64 12 -16 12 -49 23 -86 27 -49 6 -73 15 -126 51 -74 51 -99 51 -145 1 -24 -26 -28 -37 -22 -62 4 -17 8 -45 10 -62 2 -17 14 -49 28 -71 32 -51 163 -164 181 -157 8 3 24 0 36 -6 47 -25 309 -31 361 -7 19 8 66 30 104 48 77 36 77 36 105 38 11 0 29 10 40 21 11 11 31 20 46 20 31 0 50 41 60 125 4 30 11 58 15 61 5 3 9 15 9 27 0 12 14 40 32 61 23 28 32 51 36 87 4 47 2 52 -43 104 -25 30 -53 55 -61 55 -9 0 -13 4 -10 9 9 14 -22 34 -92 57 -58 19 -194 75 -257 105 -30 15 -132 27 -148 18z m199 -163 c11 -8 31 -14 44 -14 36 0 92 -10 99 -18 3 -4 -5 -4 -18 -1 -13 3 -35 1 -50 -4 -48 -19 -97 -21 -111 -4 -7 8 -23 15 -36 15 -34 0 -25 24 11 31 17 4 32 7 35 8 3 0 15 -5 26 -13z m37 -92 c8 -8 -3 -34 -14 -34 -5 0 -9 9 -9 20 0 19 11 26 23 14z m-337 -150 c43 -15 93 -27 109 -29 84 -5 82 -4 60 -18 -23 -13 -36 -15 -50 -8 -5 3 -14 6 -20 6 -71 6 -180 52 -216 92 l-24 27 31 -22 c17 -12 67 -33 110 -48z"/>
 <path d="M3536 3490 c-49 -16 -101 -37 -115 -47 -14 -10 -39 -23 -54 -30 -16 -7 -26 -17 -23 -21 5 -9 -19 -24 -57 -36 -28 -9 -31 -33 -8 -62 32 -41 27 -49 -35 -51 -31 -2 -63 -8 -71 -15 -23 -19 -10 -85 30 -151 39 -63 39 -93 1 -108 -24 -9 -30 -20 -17 -33 4 -4 6 -27 4 -51 -2 -36 1 -46 16 -52 10 -3 30 -14 44 -24 14 -10 29 -16 31 -13 3 2 13 -11 22 -31 10 -20 25 -39 34 -42 9 -3 35 -14 57 -23 22 -10 74 -23 115 -30 41 -7 80 -16 85 -20 14 -11 308 -2 341 10 47 18 191 120 210 148 10 15 18 43 18 62 0 19 4 38 10 42 15 10 15 49 -1 55 -7 3 -19 0 -27 -6 -10 -8 -20 -8 -41 3 -19 10 -34 12 -45 6 -10 -5 -20 -6 -24 -3 -3 3 -14 -2 -25 -11 -17 -15 -24 -16 -60 -5 -35 10 -44 10 -58 -3 -33 -28 -189 -40 -204 -16 -11 17 8 26 78 39 54 9 141 39 188 64 36 19 66 49 86 87 23 45 24 62 4 78 -13 11 -23 5 -64 -33 -123 -116 -286 -170 -348 -118 -30 25 -29 30 4 27 49 -6 178 26 251 61 84 40 126 73 148 115 19 36 7 55 -42 64 -18 3 -38 12 -44 19 -6 8 -19 11 -28 8 -32 -10 -82 -34 -82 -39 0 -3 12 -16 26 -29 15 -14 22 -25 15 -25 -6 0 -20 -9 -31 -20 -21 -21 -50 -17 -50 6 0 8 -9 32 -20 54 -24 47 -54 55 -153 41 -78 -11 -92 -19 -107 -67 -6 -19 -15 -34 -19 -34 -14 0 -31 49 -20 56 6 4 6 11 -2 20 -7 9 -33 14 -73 14 -59 1 -60 1 -31 14 17 7 47 11 67 8 27 -3 39 0 43 9 6 15 81 20 101 7 7 -4 17 -1 24 7 7 9 24 14 39 13 19 -2 29 3 36 19 5 13 14 22 20 21 14 -2 88 13 100 21 6 3 18 6 27 6 33 0 18 20 -27 35 -25 8 -44 20 -42 25 1 6 -27 11 -68 12 -55 2 -89 -4 -159 -27z"/>
 </g>
<g id="layer102" fill="#9a6d58" stroke="none">
 <path d="M1868 7423 c-2 -80 -4 -112 -11 -173 -7 -56 7 -87 31 -68 15 12 16 11 4 -4 -7 -9 -14 -34 -16 -55 -1 -21 -6 -49 -10 -63 -3 -14 -8 -59 -10 -100 -2 -41 -5 -75 -5 -75 -4 0 -11 -68 -15 -130 -2 -33 -7 -76 -10 -95 -4 -19 -8 -51 -10 -70 -2 -19 -9 -73 -15 -120 -7 -53 -7 -88 -1 -94 11 -11 14 -4 35 87 8 38 13 73 10 77 -3 5 -1 11 5 15 5 3 10 16 10 28 0 12 6 34 14 49 8 15 11 29 8 33 -9 9 -12 75 -4 74 19 -3 23 2 12 16 -7 8 -8 20 -4 27 5 7 7 22 5 32 -2 13 2 17 13 13 22 -9 30 10 9 22 -17 11 -17 11 0 22 14 8 16 14 6 25 -8 10 -8 18 0 27 8 10 7 17 -1 25 -12 12 -10 13 15 16 8 1 12 17 11 49 0 32 3 47 12 47 24 0 25 20 2 29 -22 9 -22 12 5 15 17 2 15 31 -3 31 -8 0 -15 7 -15 15 0 8 6 15 13 15 6 0 11 5 10 10 -2 6 -6 9 -10 8 -5 -2 -8 4 -8 13 0 8 4 13 9 9 14 -8 25 15 13 27 -6 6 -7 18 -2 27 4 9 13 30 20 46 6 17 27 60 46 96 39 76 39 79 19 79 -8 0 -15 -6 -15 -13 0 -7 -16 -28 -35 -47 -19 -19 -35 -40 -35 -46 0 -23 -25 -59 -40 -59 -9 0 -14 -8 -13 -19 1 -13 -2 -15 -10 -7 -7 7 -6 16 6 29 13 14 14 21 5 30 -10 10 -10 17 -1 31 9 14 9 21 0 30 -9 9 -9 16 0 30 9 14 8 21 -8 35 -32 27 -39 19 -41 -51z"/>
 <path d="M2486 7476 c13 -10 23 -11 31 -4 9 7 17 7 26 0 13 -11 28 -10 57 1 8 3 22 8 30 10 8 3 -25 6 -74 6 -80 1 -88 -1 -70 -13z"/>
 <path d="M3366 7473 c12 -36 34 -81 42 -85 10 -4 46 -80 47 -98 0 -8 4 -21 8 -28 16 -24 37 7 37 54 0 24 3 44 7 44 4 0 26 -19 50 -42 33 -32 45 -39 56 -30 10 9 16 9 25 0 8 -8 21 -6 48 7 33 16 40 16 63 3 27 -15 47 -10 85 21 9 8 19 11 23 8 3 -4 24 8 47 26 56 44 82 57 110 57 14 0 27 4 30 9 11 17 54 -1 59 -25 2 -13 1 -22 -2 -20 -11 7 -73 -23 -67 -32 8 -14 53 -2 72 19 9 10 23 19 31 19 7 0 25 7 38 16 23 15 25 15 31 -2 3 -11 8 -26 12 -34 3 -8 4 -19 3 -25 -4 -16 21 -168 32 -195 6 -14 9 -29 8 -34 -1 -5 1 -16 4 -25 4 -9 8 -42 10 -75 4 -62 19 -93 31 -61 4 10 2 26 -4 35 -6 10 -8 27 -5 39 3 11 2 29 -2 38 -5 10 -7 22 -6 27 1 5 -1 16 -5 25 -4 9 -8 23 -9 31 -8 69 -28 188 -32 200 -3 8 -5 23 -4 33 1 10 -5 29 -13 42 -9 13 -13 31 -10 39 7 18 -21 23 -31 6 -4 -7 -11 -8 -18 -2 -13 10 -44 9 -142 -3 -46 -6 -67 -14 -89 -36 -17 -16 -37 -29 -47 -29 -9 0 -22 -7 -29 -16 -8 -8 -25 -14 -39 -12 -16 2 -25 -2 -24 -9 2 -7 -8 -10 -25 -9 -15 2 -27 9 -27 17 -1 20 -55 12 -81 -12 -22 -21 -49 -25 -59 -9 -3 6 -15 10 -26 10 -11 0 -18 3 -15 8 2 4 -8 23 -24 42 -24 29 -30 32 -43 21 -9 -7 -17 -22 -19 -34 -3 -22 -3 -22 -26 3 -14 15 -20 31 -16 43 4 13 0 20 -15 24 -12 3 -21 12 -21 19 0 8 -9 14 -20 14 -14 0 -18 -5 -14 -17z"/>
 <path d="M2332 7469 c2 -6 8 -10 13 -10 5 0 11 4 13 10 2 6 -4 11 -13 11 -9 0 -15 -5 -13 -11z"/>
 <path d="M2396 7391 c-4 -5 -2 -12 4 -16 6 -4 8 -10 5 -15 -3 -4 2 -13 9 -19 8 -7 17 -8 20 -3 3 6 -1 15 -9 22 -8 7 -13 16 -10 20 3 5 1 11 -4 14 -5 4 -12 2 -15 -3z"/>
 <path d="M1935 7370 c-4 -6 -3 -16 3 -22 6 -6 12 -6 17 2 4 6 3 16 -3 22 -6 6 -12 6 -17 -2z"/>
 <path d="M3940 7294 c-114 -69 -150 -96 -144 -106 3 -5 15 -3 27 6 12 8 64 41 115 71 51 31 90 61 87 66 -8 12 1 15 -85 -37z"/>
 <path d="M2435 7321 c-4 -8 -1 -19 8 -28 19 -20 30 -1 13 22 -10 14 -15 15 -21 6z"/>
 <path d="M2467 7273 c-4 -6 0 -18 7 -28 8 -11 16 -14 19 -8 4 6 0 18 -7 28 -8 11 -16 14 -19 8z"/>
 <path d="M2497 7223 c-4 -6 0 -18 7 -28 8 -11 16 -14 19 -8 4 6 0 18 -7 28 -8 11 -16 14 -19 8z"/>
 <path d="M2536 7162 c-3 -6 4 -23 17 -38 31 -36 42 -18 12 20 -13 16 -25 24 -29 18z"/>
 <path d="M3725 7156 c-11 -8 -14 -16 -8 -19 6 -4 18 0 28 7 11 8 14 16 8 19 -6 4 -18 0 -28 -7z"/>
 <path d="M3662 7118 c-17 -11 -30 -24 -26 -29 5 -9 58 14 69 30 11 19 -11 18 -43 -1z"/>
 <path d="M3525 7041 c-7 -12 12 -24 25 -16 11 7 4 25 -10 25 -5 0 -11 -4 -15 -9z"/>
 <path d="M2636 7032 c-3 -6 1 -15 8 -21 8 -7 17 -8 20 -3 3 6 -1 15 -8 21 -8 7 -17 8 -20 3z"/>
 <path d="M3425 6986 c-11 -8 -14 -16 -8 -19 6 -4 18 0 28 7 11 8 14 16 8 19 -6 4 -18 0 -28 -7z"/>
 <path d="M2686 6982 c-3 -5 1 -15 9 -22 8 -7 15 -9 15 -5 0 4 16 -7 35 -24 32 -28 46 -35 66 -33 8 1 5 -32 -4 -35 -16 -6 -25 -2 -23 10 0 6 -3 12 -9 12 -5 0 -9 -6 -9 -12 1 -7 -6 -13 -17 -13 -10 0 -21 -5 -24 -10 -5 -8 -11 -7 -21 1 -11 9 -22 8 -49 -5 -20 -10 -33 -21 -30 -27 4 -5 -6 -10 -22 -10 -15 -1 -37 -3 -48 -3 -30 -2 -55 12 -49 28 7 17 -12 31 -21 16 -4 -6 -2 -17 5 -25 8 -9 8 -15 0 -20 -6 -4 -8 -16 -5 -26 5 -16 3 -20 -12 -17 -13 2 -18 -3 -18 -22 0 -16 -5 -24 -14 -22 -7 1 -19 -2 -26 -8 -8 -7 -16 -7 -19 -2 -3 5 -20 9 -38 8 -25 -2 -32 -6 -30 -19 2 -12 -3 -16 -20 -14 -18 1 -22 -3 -21 -18 4 -31 -8 -76 -18 -69 -5 3 -15 2 -21 -3 -7 -4 -17 -8 -23 -8 -5 0 -9 -8 -7 -16 2 -14 -8 -16 -55 -15 -57 1 -57 1 -64 -31 -3 -18 -12 -40 -19 -48 -10 -12 -10 -19 1 -33 20 -25 39 -60 39 -72 0 -18 -20 0 -30 25 -15 39 -52 58 -86 45 -28 -11 -28 -12 -10 -25 15 -12 17 -17 7 -29 -7 -8 -10 -20 -7 -25 8 -13 -13 -51 -37 -69 -10 -8 -16 -20 -13 -27 5 -14 -11 -15 -32 -1 -8 5 -26 -3 -49 -20 l-36 -27 28 -22 c17 -14 23 -25 16 -29 -6 -4 -11 -19 -11 -33 0 -20 -3 -23 -13 -14 -11 8 -18 7 -31 -7 -17 -19 -17 -77 0 -77 5 0 8 4 6 10 -2 5 0 7 4 3 11 -11 33 11 49 49 8 18 20 32 27 31 8 -2 12 11 11 40 0 34 2 40 13 31 18 -15 44 -4 44 18 0 10 10 23 22 28 18 8 21 19 22 64 1 34 6 56 14 59 7 2 11 -4 10 -17 -2 -11 2 -20 7 -20 6 0 9 9 8 20 -3 23 1 23 30 6 51 -31 80 1 53 57 -14 30 -15 40 -5 52 7 8 18 13 25 10 16 -6 32 14 29 36 -4 21 23 12 46 -16 19 -23 55 -15 45 10 -3 8 -2 12 3 9 13 -7 25 14 27 45 1 14 2 35 3 48 1 20 5 22 24 16 12 -4 31 -8 42 -8 11 -1 26 -5 33 -10 14 -8 52 18 52 36 0 5 14 21 30 35 17 13 30 33 30 43 0 11 10 26 22 34 19 13 24 14 37 2 17 -15 53 -7 66 13 3 6 11 9 16 5 5 -3 16 -1 23 5 10 9 15 8 20 -4 7 -20 35 -19 43 2 5 14 8 13 15 -6 11 -31 44 -24 40 9 -2 23 0 22 19 -8 14 -22 25 -30 32 -23 5 5 16 7 24 4 7 -3 21 1 31 9 9 8 24 19 32 23 13 8 13 6 2 -8 -8 -9 -11 -21 -7 -27 10 -16 35 8 28 26 -4 10 -1 14 8 12 8 -1 15 0 17 5 1 4 0 7 -4 6 -3 0 -21 14 -40 30 -19 17 -40 31 -47 31 -7 0 -19 6 -25 13 -7 6 -16 12 -20 12 -8 0 -47 27 -93 63 -16 13 -29 20 -29 16 0 -4 -9 1 -19 10 -11 10 -22 13 -25 8z"/>
 <path d="M3364 6956 c-10 -8 -22 -14 -26 -15 -5 0 -8 -3 -8 -6 0 -4 6 -6 13 -4 1 0 10 2 21 4 24 5 41 21 29 28 -6 4 -18 0 -29 -7z"/>
 <path d="M3296 6923 c-4 -5 -11 -8 -14 -8 -16 -2 -58 -18 -70 -28 -9 -7 -9 -13 -1 -23 6 -7 8 -17 5 -22 -11 -18 81 -82 117 -82 8 0 18 -8 21 -17 5 -12 9 -14 18 -5 18 18 30 14 23 -7 -8 -26 50 -70 68 -52 9 10 7 17 -11 31 -12 10 -18 21 -13 24 5 3 11 -1 15 -9 3 -8 13 -15 21 -15 9 0 14 -4 10 -9 -3 -5 -1 -12 4 -15 5 -4 12 -2 16 4 3 5 21 9 40 7 31 -2 32 -3 18 -19 -11 -13 -12 -21 -3 -37 6 -12 10 -29 8 -39 -2 -11 3 -16 14 -14 12 2 23 -10 34 -35 10 -21 16 -42 15 -47 -1 -4 3 -14 10 -22 6 -7 8 -18 5 -23 -4 -5 -2 -13 4 -16 15 -9 59 21 70 48 l9 22 0 -22 c1 -12 6 -25 11 -28 7 -4 6 -13 -1 -26 -7 -15 -7 -24 2 -35 18 -22 29 -17 44 19 13 31 42 64 53 60 2 -1 13 -14 23 -30 15 -21 18 -38 13 -70 -4 -29 -2 -48 9 -63 9 -12 13 -28 11 -35 -3 -6 2 -18 11 -25 8 -7 15 -18 15 -26 0 -7 6 -17 14 -21 8 -4 16 -27 18 -51 5 -46 33 -78 55 -61 8 7 23 -2 50 -31 34 -35 41 -38 57 -27 16 12 16 14 -3 31 -11 10 -17 24 -14 32 3 8 2 22 -2 31 -6 16 -8 15 -25 -7 -11 -14 -20 -20 -20 -13 0 6 5 15 10 18 6 4 8 11 4 16 -3 5 -9 7 -14 4 -5 -3 -12 0 -15 6 -5 7 -14 3 -26 -10 -11 -12 -25 -21 -32 -21 -8 0 -7 3 2 9 18 11 24 61 10 78 -6 6 -8 17 -5 22 4 5 2 12 -3 15 -5 3 -7 15 -4 25 3 10 -3 30 -11 44 -9 13 -15 29 -14 35 2 5 -1 10 -7 10 -5 0 -9 -5 -7 -11 2 -7 0 -9 -4 -5 -4 4 -14 2 -22 -5 -13 -10 -15 -9 -9 6 4 10 7 23 7 28 0 5 13 9 28 9 36 0 44 8 32 30 -6 11 -17 16 -29 13 -18 -5 -29 3 -54 40 -7 9 -23 19 -36 22 -14 2 -29 10 -35 16 -8 8 -5 10 10 5 13 -4 26 -1 34 9 10 12 8 16 -15 25 -15 6 -30 8 -33 5 -3 -2 -11 0 -19 7 -7 6 -16 8 -20 5 -3 -4 -12 -2 -20 4 -10 9 -10 15 -3 25 15 17 -44 44 -84 39 -32 -4 -59 11 -64 35 -5 25 -51 60 -79 60 -20 0 -23 3 -14 13 12 15 5 27 -17 27 -7 0 -25 9 -39 20 -21 16 -36 19 -80 15 -32 -3 -52 -1 -48 4 9 16 -15 24 -30 11 -12 -10 -15 -9 -15 9 0 12 -7 24 -15 27 -8 4 -15 11 -15 16 0 6 6 5 15 -2 15 -12 17 -10 19 20 1 8 7 15 14 15 6 0 12 4 13 8 1 13 -7 18 -15 10z m373 -342 c-15 -5 -22 6 -14 19 6 9 10 9 16 -1 5 -8 4 -15 -2 -18z"/>
 <path d="M5455 6920 c-4 -6 -3 -16 3 -22 6 -6 12 -6 17 2 4 6 3 16 -3 22 -6 6 -12 6 -17 -2z"/>
 <path d="M4297 6903 c-7 -10 -1 -161 6 -183 13 -39 16 -69 7 -75 -6 -4 -7 -12 -3 -18 11 -17 11 -77 1 -83 -5 -3 -4 -12 2 -19 6 -7 13 -51 16 -97 6 -97 10 -112 25 -102 8 5 10 53 5 166 -3 88 -8 163 -11 167 -2 4 -9 59 -15 122 -11 107 -20 143 -33 122z"/>
 <path d="M35 6870 c-3 -5 8 -16 24 -25 18 -9 32 -11 36 -5 3 5 -8 16 -24 25 -18 9 -32 11 -36 5z"/>
 <path d="M125 6831 c-3 -6 3 -15 14 -21 12 -6 22 -6 26 -1 3 6 -3 15 -14 21 -12 6 -22 6 -26 1z"/>
 <path d="M196 6801 c-4 -5 -2 -12 4 -16 5 -3 10 -3 10 1 0 3 7 1 15 -6 8 -7 15 -9 15 -5 0 4 6 2 14 -4 10 -8 16 -9 21 -1 3 5 4 11 1 11 -16 4 -26 7 -31 9 -3 1 -8 3 -12 4 -5 1 -13 5 -20 9 -6 4 -14 3 -17 -2z"/>
 <path d="M305 6760 c-3 -5 -4 -11 -1 -11 3 -1 9 -2 14 -3 4 -1 17 -7 29 -14 13 -7 24 -8 28 -3 3 6 -4 15 -15 21 -11 6 -20 8 -20 4 0 -3 -6 -1 -14 5 -10 8 -16 9 -21 1z"/>
 <path d="M2695 6730 c-8 -14 4 -32 16 -24 6 3 16 -2 24 -12 13 -18 14 -18 20 -1 4 9 5 24 1 32 -6 17 -51 20 -61 5z"/>
 <path d="M2598 6687 c-25 -20 -28 -44 -8 -62 24 -22 55 -13 45 13 -4 9 -8 25 -9 34 -3 25 -10 29 -28 15z"/>
 <path d="M3615 6680 c-3 -5 -2 -11 2 -13 12 -7 47 -2 53 7 7 11 -48 17 -55 6z"/>
 <path d="M646 6631 c-4 -5 -2 -12 4 -16 5 -3 10 -3 10 1 0 3 6 1 14 -5 10 -8 16 -9 21 -1 3 5 4 11 1 11 -3 1 -9 2 -13 3 -5 1 -13 5 -20 9 -6 4 -14 3 -17 -2z"/>
 <path d="M2440 6604 c-9 -10 -10 -18 -2 -26 12 -12 32 -2 32 17 0 21 -16 26 -30 9z"/>
 <path d="M796 6581 c-4 -5 -2 -12 4 -16 5 -3 10 -3 10 1 0 3 7 1 15 -6 8 -7 15 -9 15 -5 0 4 6 2 14 -4 10 -8 16 -9 21 -1 3 5 4 11 1 11 -16 4 -26 7 -31 9 -3 1 -8 3 -12 4 -5 1 -13 5 -20 9 -6 4 -14 3 -17 -2z"/>
 <path d="M895 6550 c-3 -5 -4 -11 -1 -11 16 -4 26 -7 31 -9 3 -1 10 -4 15 -5 6 -1 12 -4 15 -5 3 -1 8 -3 13 -4 4 -1 12 -5 19 -9 6 -4 14 -3 17 2 4 5 2 12 -4 16 -5 3 -10 3 -10 -1 0 -3 -7 -1 -15 6 -8 7 -15 9 -15 5 0 -4 -7 -2 -15 5 -8 7 -15 9 -15 5 0 -4 -6 -2 -14 4 -10 8 -16 9 -21 1z"/>
 <path d="M5906 6533 c-4 -5 -12 -9 -17 -9 -5 -1 -11 -3 -14 -4 -3 -1 -9 -3 -15 -4 -5 0 -10 -4 -10 -8 0 -5 0 -11 0 -14 0 -4 6 -2 13 4 6 6 15 11 20 11 4 1 10 2 15 2 4 1 12 2 17 3 13 1 19 20 8 23 -5 2 -13 0 -17 -4z"/>
 <path d="M1066 6501 c-4 -5 -2 -12 4 -16 5 -3 10 -3 10 1 0 3 6 1 14 -5 10 -8 16 -9 21 -1 3 5 4 11 1 11 -3 1 -9 2 -13 3 -5 1 -13 5 -20 9 -6 4 -14 3 -17 -2z"/>
 <path d="M5776 6493 c-4 -5 -12 -9 -17 -9 -5 -1 -11 -3 -14 -4 -3 -1 -9 -4 -15 -5 -5 -1 -12 -4 -15 -5 -3 -1 -9 -4 -15 -5 -5 -1 -12 -4 -15 -5 -3 -1 -9 -4 -15 -5 -5 -1 -12 -4 -15 -5 -3 -1 -9 -4 -15 -5 -5 -1 -12 -4 -15 -5 -3 -1 -9 -4 -15 -5 -5 -1 -12 -4 -15 -5 -3 -1 -9 -4 -15 -5 -5 -1 -12 -4 -15 -5 -3 -1 -9 -3 -15 -4 -5 0 -10 -4 -10 -8 0 -8 4 -9 15 -7 3 1 10 3 15 4 6 1 12 4 15 5 3 1 10 4 15 5 6 1 12 4 15 5 3 1 10 4 15 5 6 1 12 4 15 5 3 1 10 4 15 5 6 1 12 4 15 5 3 1 10 4 15 5 6 1 12 4 15 5 3 1 10 4 15 5 6 1 12 4 15 5 3 1 10 4 15 5 6 1 12 4 15 5 3 1 10 3 15 4 10 1 15 14 8 22 -3 2 -8 1 -12 -3z"/>
 <path d="M1396 6372 c-3 -6 1 -15 8 -21 8 -7 17 -8 20 -3 3 6 -1 15 -8 21 -8 7 -17 8 -20 3z"/>
 <path d="M3809 6368 c-6 -19 -4 -50 4 -55 16 -10 39 28 26 44 -10 11 -27 18 -30 11z"/>
 <path d="M5385 6360 c-4 -6 -10 -8 -15 -5 -5 3 -11 1 -14 -4 -4 -5 -2 -12 3 -15 5 -4 12 -2 16 4 4 6 10 8 15 5 5 -3 11 -1 14 4 4 5 2 12 -3 15 -5 4 -12 2 -16 -4z"/>
 <path d="M5285 6330 c-4 -6 -10 -8 -15 -5 -5 3 -11 1 -14 -4 -4 -5 -2 -12 3 -15 5 -4 12 -2 16 4 4 6 10 8 15 5 5 -3 11 -1 14 4 4 5 2 12 -3 15 -5 4 -12 2 -16 -4z"/>
 <path d="M2052 6307 c-14 -16 -9 -70 7 -75 14 -5 30 36 23 60 -6 25 -18 30 -30 15z"/>
 <path d="M5185 6300 c-4 -6 -10 -8 -15 -5 -5 3 -11 1 -14 -4 -4 -5 -2 -12 3 -15 5 -4 12 -2 16 4 4 6 10 8 15 5 5 -3 11 -1 14 4 4 5 2 12 -3 15 -5 4 -12 2 -16 -4z"/>
 <path d="M1466 6292 c-3 -5 3 -17 13 -26 11 -10 22 -13 25 -8 3 5 -3 17 -13 26 -11 10 -22 13 -25 8z"/>
 <path d="M4345 6227 c-9 -22 -2 -62 10 -60 6 1 11 14 13 29 4 32 -14 56 -23 31z"/>
 <path d="M1526 6222 c-3 -6 1 -15 8 -21 8 -7 17 -8 20 -3 3 6 -1 15 -8 21 -8 7 -17 8 -20 3z"/>
 <path d="M4841 6186 c-7 -8 -8 -17 -3 -20 6 -3 15 1 21 8 7 8 8 17 3 20 -6 3 -15 -1 -21 -8z"/>
 <path d="M1794 6177 c-8 -22 11 -46 26 -31 7 7 5 17 -4 30 -14 18 -15 18 -22 1z"/>
 <path d="M4334 6076 c-8 -21 3 -49 16 -41 5 3 10 15 10 25 0 25 -18 36 -26 16z"/>
 <path d="M4701 6066 c-13 -13 -18 -26 -13 -30 5 -3 19 5 31 18 13 13 18 26 13 30 -5 3 -19 -5 -31 -18z"/>
 <path d="M4044 6015 c-22 -33 -10 -49 22 -29 34 23 30 8 -7 -23 -36 -31 -36 -64 0 -70 13 -2 30 2 37 8 19 16 38 -34 24 -62 -7 -13 -7 -25 -1 -38 6 -10 8 -21 4 -24 -3 -3 -2 -14 2 -24 5 -10 9 -22 10 -28 1 -5 3 -14 3 -18 1 -4 11 -3 22 3 18 9 19 8 12 -12 -4 -13 -8 -41 -7 -63 0 -34 3 -40 22 -40 11 0 25 -4 29 -8 5 -4 1 -5 -8 -2 -18 7 -34 -10 -18 -20 6 -4 8 -11 4 -16 -3 -5 -1 -16 6 -24 6 -7 7 -16 3 -18 -5 -3 -8 -18 -7 -34 1 -29 10 -32 53 -18 22 7 23 5 18 -16 -4 -13 -7 -30 -7 -38 0 -15 -14 -6 -16 10 -1 5 -2 11 -3 14 0 3 -10 1 -21 -5 -10 -6 -17 -16 -14 -24 3 -7 -2 -16 -11 -20 -29 -11 -7 -23 39 -21 47 2 67 -15 46 -40 -7 -9 -6 -16 5 -25 8 -7 15 -9 15 -5 0 4 6 3 13 -2 6 -6 24 -10 40 -9 30 2 34 -6 12 -24 -12 -10 -13 -16 -4 -26 9 -11 8 -14 -7 -11 -11 1 -24 6 -31 10 -16 10 -26 -9 -18 -33 4 -11 3 -19 -2 -18 -4 2 -10 -1 -13 -7 -3 -5 4 -10 15 -10 15 0 19 -6 17 -25 -4 -40 5 -55 26 -39 9 7 14 9 9 4 -4 -4 1 -17 10 -28 17 -19 17 -19 -4 -13 -13 4 -28 4 -35 -1 -7 -4 -20 -8 -28 -8 -8 0 -15 -7 -15 -15 0 -11 10 -15 38 -13 27 1 37 -2 37 -13 0 -15 39 -35 53 -27 15 9 6 -15 -13 -32 -21 -19 -18 -38 4 -29 7 3 16 -2 20 -12 5 -14 9 -14 24 -3 15 13 16 12 3 -3 -7 -10 -17 -16 -21 -13 -5 3 -11 1 -14 -4 -9 -13 21 -34 39 -27 10 3 13 2 10 -5 -4 -5 -16 -9 -28 -7 -19 3 -22 -2 -21 -35 1 -32 0 -35 -11 -21 -20 27 -29 -3 -10 -32 9 -14 14 -31 12 -37 -6 -16 22 -69 32 -62 5 3 12 -2 15 -11 3 -8 11 -12 16 -9 7 4 4 19 -10 42 -19 33 -19 34 -1 28 27 -8 36 12 12 25 -12 6 -26 20 -32 32 -10 19 -8 25 18 47 16 15 37 41 46 58 15 32 15 33 -12 52 -22 16 -31 18 -42 8 -9 -8 -8 -5 2 8 28 37 41 77 29 89 -8 8 -15 6 -24 -6 -22 -29 -34 -21 -34 24 -1 28 -7 47 -18 55 -10 7 -14 13 -8 14 5 1 18 2 29 3 26 1 43 59 25 81 -12 14 -25 13 -25 -3 0 -15 -17 -32 -26 -27 -16 11 -10 30 14 40 25 11 21 31 -5 29 -10 -1 -15 3 -12 8 4 5 15 8 25 5 10 -3 23 1 29 8 9 10 6 16 -10 25 l-21 11 21 29 c15 20 17 31 9 36 -11 6 -33 -14 -41 -37 -8 -20 -54 5 -71 39 -17 36 -17 37 3 51 19 13 19 15 4 32 -9 10 -22 15 -29 13 -14 -6 -15 12 -2 33 8 13 -6 26 -17 16 -4 -4 -12 -8 -19 -9 -7 -1 -19 -3 -27 -5 -8 -2 -14 1 -15 6 0 6 -4 15 -8 22 -4 6 1 19 10 29 34 34 51 92 26 87 -9 -2 -11 24 -3 35 2 1 3 5 4 10 1 4 7 17 14 29 7 13 8 24 3 28 -8 5 -38 -34 -33 -42 1 -2 1 -5 1 -8 -1 -3 -3 -9 -4 -15 -1 -5 -3 -12 -4 -15 0 -3 -10 4 -22 16 -19 19 -20 22 -4 39 17 19 13 42 -8 39 -50 -6 -79 27 -50 57 20 19 25 42 16 64 -3 8 -7 18 -7 23 -1 4 -5 8 -11 8 -5 1 -15 13 -21 28 -9 22 -7 28 13 45 22 16 23 29 5 32 -7 1 -31 9 -69 25 -19 7 -26 4 -39 -16z"/>
 <path d="M1699 6008 c-1 -5 -2 -11 -3 -15 -1 -5 -5 -14 -9 -20 -8 -13 -5 -15 23 -17 17 -1 16 -52 -3 -95 -6 -14 -11 -30 -11 -34 -1 -4 -8 -12 -16 -17 -8 -5 -15 -13 -16 -17 0 -4 -4 -16 -8 -25 -5 -10 -5 -26 0 -35 4 -10 8 -29 8 -43 1 -14 6 -25 11 -25 6 0 10 11 10 25 -1 14 7 31 16 37 11 8 15 21 12 33 -4 14 -1 20 8 18 8 -2 14 6 14 22 0 35 13 52 35 45 10 -3 21 -1 25 4 9 16 -14 53 -28 45 -7 -4 -9 -4 -5 1 4 4 -1 20 -12 35 -11 15 -18 29 -15 31 2 2 -5 15 -15 29 -11 14 -20 22 -21 18z"/>
 <path d="M4324 5976 c-4 -10 -2 -22 4 -28 8 -8 13 -7 18 6 4 10 2 22 -4 28 -8 8 -13 7 -18 -6z"/>
 <path d="M4511 5896 c-18 -19 -29 -36 -23 -39 5 -4 23 9 41 27 18 19 29 36 23 39 -5 4 -23 -9 -41 -27z"/>
 <path d="M4451 5836 c-7 -8 -8 -17 -3 -20 6 -3 15 1 21 8 7 8 8 17 3 20 -6 3 -15 -1 -21 -8z"/>
 <path d="M4255 5795 c-3 -8 -7 -22 -10 -31 -7 -22 4 -37 18 -25 7 5 15 10 20 10 4 1 7 4 6 9 -1 4 -5 6 -11 4 -5 -1 -7 2 -3 8 3 6 10 8 15 5 5 -3 11 -1 15 4 3 6 -3 15 -14 20 -26 14 -31 14 -36 -4z"/>
 <path d="M4356 5731 c-10 -11 -13 -22 -8 -25 5 -3 17 3 26 13 10 11 13 22 8 25 -5 3 -17 -3 -26 -13z"/>
 <path d="M1727 5714 c-3 -4 -2 -15 3 -24 7 -13 5 -21 -5 -30 -14 -11 -14 -15 1 -31 18 -20 36 -17 28 5 -3 8 -1 17 4 20 6 3 8 15 5 26 -6 23 -27 43 -36 34z"/>
 <path d="M1609 5643 c-1 -2 -2 -6 -4 -10 -1 -5 -5 -16 -10 -26 -5 -11 -3 -23 4 -30 10 -9 16 -7 27 8 8 11 12 25 10 32 -3 7 -1 12 3 10 5 -1 8 2 8 8 -2 8 -35 16 -38 8z"/>
 <path d="M1693 5622 c-26 -4 -55 -46 -55 -78 0 -13 -9 -31 -19 -40 -14 -13 -16 -20 -8 -30 6 -8 9 -23 6 -34 -8 -30 11 -35 24 -6 10 21 15 23 31 15 15 -8 17 -13 8 -24 -7 -8 -9 -19 -5 -25 4 -6 1 -9 -6 -8 -14 3 -21 -39 -11 -57 13 -21 10 -36 -10 -46 -16 -8 -23 -8 -29 2 -11 18 -11 26 1 49 13 25 -2 33 -28 14 -21 -14 -21 -17 -7 -44 8 -16 15 -40 15 -53 0 -13 9 -32 20 -42 20 -18 24 -15 20 19 -1 11 3 16 9 11 11 -6 20 8 25 37 1 7 5 18 9 25 4 6 3 14 -1 17 -13 8 -7 51 6 52 7 1 14 2 17 3 2 0 0 12 -5 25 -5 15 -5 27 3 35 14 14 -2 31 -30 34 -16 1 -19 8 -18 37 3 49 3 50 18 44 15 -5 44 23 34 33 -4 3 1 11 10 18 19 14 7 23 -24 17z"/>
 <path d="M1755 5580 c-4 -6 -1 -18 7 -27 7 -9 12 -18 11 -20 -2 -1 -1 -3 2 -3 3 0 8 0 12 0 4 0 2 5 -4 11 -6 6 -9 17 -7 24 7 16 -12 29 -21 15z"/>
 <path d="M1574 5539 c-10 -17 13 -36 27 -22 12 12 4 33 -11 33 -5 0 -12 -5 -16 -11z"/>
 <path d="M4271 5256 c-13 -15 -5 -26 20 -26 26 0 32 17 10 29 -14 8 -22 7 -30 -3z"/>
 <path d="M1591 5201 c-7 -4 -19 -20 -27 -35 -13 -26 -12 -28 5 -33 28 -7 34 -32 16 -60 -15 -22 -14 -24 11 -34 l27 -10 -22 -15 c-16 -12 -19 -19 -11 -29 13 -15 4 -41 -16 -49 -10 -4 -13 -13 -9 -25 4 -14 0 -23 -15 -31 -16 -9 -18 -15 -10 -29 7 -15 6 -20 -7 -25 -14 -6 -14 -8 3 -27 13 -15 14 -20 4 -17 -8 2 -14 -3 -15 -10 0 -7 -6 -17 -14 -22 -17 -10 -23 -69 -9 -87 8 -10 17 -8 40 9 l30 21 -23 19 c-13 11 -19 17 -12 14 17 -9 27 13 13 29 -8 10 -9 15 -2 15 6 0 14 -5 17 -10 4 -6 11 -8 16 -5 5 4 9 -5 9 -19 0 -33 16 -42 30 -16 8 15 7 25 -5 44 -11 17 -13 26 -5 31 14 8 25 -1 25 -21 0 -7 5 -13 10 -11 10 2 11 30 3 74 -6 31 -27 53 -46 47 -15 -5 -15 -4 0 6 10 6 15 17 11 26 -3 8 4 25 16 38 12 13 19 29 16 38 -3 8 3 22 14 32 20 18 20 42 0 30 -5 -3 -6 -10 -3 -16 4 -6 2 -8 -4 -5 -11 8 -11 25 2 45 5 9 -1 23 -18 41 -31 32 -32 41 -8 41 26 0 56 25 48 39 -6 9 -11 9 -21 1 -9 -8 -20 -8 -32 -1 -11 5 -25 6 -32 2z m16 -345 c-3 -7 -1 -18 5 -24 8 -8 5 -11 -10 -9 -16 1 -18 5 -12 18 5 9 6 19 3 23 -3 3 -1 6 6 6 7 0 11 -6 8 -14z"/>
 <path d="M2426 5159 c-16 -5 -41 -21 -56 -37 -14 -16 -39 -36 -56 -44 -16 -8 -28 -20 -26 -27 1 -7 -4 -22 -13 -34 -8 -12 -15 -28 -15 -37 0 -9 -13 -30 -30 -48 -16 -18 -30 -42 -30 -53 0 -24 -6 -24 -37 1 -14 11 -29 17 -34 14 -5 -3 -19 1 -31 8 -13 6 -51 13 -86 14 -55 2 -64 0 -74 -19 -6 -12 -23 -36 -36 -54 -14 -17 -27 -41 -29 -53 -2 -12 -17 -39 -33 -60 -17 -21 -30 -42 -30 -48 0 -14 -24 -22 -47 -16 -11 3 -25 -2 -32 -10 -8 -9 -19 -16 -26 -16 -7 0 -22 -18 -34 -40 -11 -22 -18 -40 -14 -40 4 0 2 -5 -5 -12 -7 -7 -12 -22 -12 -34 0 -13 -4 -25 -9 -28 -5 -4 -12 -25 -16 -49 -7 -51 -25 -133 -35 -167 -4 -14 -14 -45 -21 -70 -7 -25 -19 -54 -26 -64 -7 -11 -15 -46 -19 -78 -4 -32 -11 -61 -15 -64 -5 -3 -9 -16 -9 -29 0 -14 -7 -42 -15 -62 -8 -21 -17 -58 -19 -83 -7 -65 -20 -115 -31 -115 -6 0 -16 -4 -22 -8 -24 -15 -13 71 18 138 5 11 11 81 13 155 3 74 8 142 11 152 4 9 -1 46 -10 82 -16 65 -16 67 4 102 19 31 21 45 15 115 -4 44 -11 82 -15 85 -14 8 -79 -24 -86 -42 -4 -12 3 -25 25 -44 30 -25 31 -27 16 -48 -8 -12 -20 -20 -25 -17 -13 9 -25 -30 -33 -107 -6 -55 -11 -68 -25 -68 -26 0 -125 -123 -134 -167 -12 -57 -13 -133 -2 -133 5 -1 16 23 25 52 27 94 62 137 111 138 32 0 49 17 49 51 0 23 4 27 26 25 23 -1 25 -4 20 -30 -3 -16 -6 -37 -6 -48 0 -16 -3 -18 -14 -9 -11 9 -19 5 -40 -20 -14 -17 -24 -34 -21 -39 3 -4 -2 -13 -10 -20 -8 -7 -15 -18 -15 -25 0 -7 -7 -16 -16 -19 -9 -3 -14 -12 -11 -20 3 -8 -8 -29 -24 -47 -32 -36 -37 -57 -14 -65 11 -5 13 -10 5 -19 -7 -8 -7 -21 -1 -38 5 -14 7 -28 4 -31 -3 -3 6 -21 21 -40 16 -21 22 -37 16 -41 -6 -4 -8 -11 -4 -16 6 -10 -23 -49 -36 -49 -7 0 -24 60 -44 155 -8 40 -17 60 -27 60 -15 0 -39 -88 -44 -165 -1 -25 -7 -92 -13 -149 -16 -155 4 -185 82 -125 25 19 48 34 53 34 4 0 25 18 45 40 l38 40 16 -25 c14 -22 15 -30 4 -58 -7 -17 -22 -41 -32 -53 -22 -25 -14 -36 19 -23 14 5 28 7 33 4 11 -7 26 15 35 50 6 27 8 28 15 10 4 -11 3 -28 -2 -38 -5 -9 -6 -41 -3 -70 6 -50 6 -61 4 -89 -1 -7 3 -40 9 -73 5 -33 7 -64 4 -69 -3 -5 -5 -22 -4 -37 0 -16 -4 -31 -9 -34 -5 -4 -5 -14 2 -26 5 -11 10 -30 9 -42 -1 -12 -1 -24 0 -27 1 -3 4 -57 6 -120 5 -142 5 -142 16 -157 6 -7 11 -25 13 -40 4 -40 43 -225 52 -248 4 -11 28 -54 53 -95 25 -41 58 -100 74 -130 76 -147 189 -294 273 -356 21 -16 57 -45 80 -66 24 -21 49 -38 57 -38 9 0 30 -8 48 -18 56 -32 163 -63 226 -66 33 -2 65 -6 71 -10 6 -4 20 -4 31 -1 11 4 29 0 42 -9 12 -9 26 -12 32 -7 12 9 106 27 196 37 30 3 59 8 63 11 15 9 116 4 160 -8 50 -15 76 -13 100 9 10 9 33 15 54 14 22 -1 44 5 55 14 18 17 50 12 46 -7 -2 -6 5 -16 14 -22 13 -9 21 -7 36 6 12 11 22 13 29 6 7 -7 14 -5 23 6 7 8 23 15 36 15 12 0 26 5 29 10 4 7 13 6 26 -1 11 -6 50 -12 85 -13 35 -2 67 -6 70 -9 3 -3 18 -1 32 5 15 6 36 14 47 18 11 5 55 11 98 14 43 3 91 12 105 20 51 26 87 40 117 43 47 5 119 47 125 74 4 16 17 28 39 35 27 9 38 22 58 65 14 29 42 74 64 100 21 26 39 51 39 57 0 5 7 15 15 22 29 24 102 156 125 225 12 39 28 79 33 90 6 11 12 22 12 25 1 3 7 23 13 45 7 22 12 57 12 78 0 21 6 48 12 60 7 12 13 31 14 42 0 11 6 33 13 50 7 16 9 41 5 55 -8 31 -16 308 -13 455 1 61 3 134 3 162 1 29 4 53 8 53 3 0 12 -24 18 -52 16 -69 19 -72 40 -53 15 13 25 15 54 7 48 -14 57 3 13 24 -29 14 -36 24 -46 66 -11 50 -8 68 10 68 19 0 99 -40 99 -50 0 -5 19 -18 43 -28 23 -11 52 -31 65 -45 27 -29 50 -26 83 9 20 21 23 36 25 121 2 59 -1 102 -8 110 -6 8 -8 16 -4 20 3 3 -1 14 -10 24 -13 14 -13 21 -3 37 12 18 10 24 -14 46 -15 14 -27 36 -27 50 0 14 -5 28 -10 31 -8 5 -7 11 1 21 16 20 3 164 -21 217 -26 61 -127 173 -151 169 -14 -3 -19 3 -19 21 0 14 7 27 15 31 34 13 -2 105 -41 106 -6 0 -19 9 -29 20 -17 19 -17 21 0 40 14 16 21 18 33 8 11 -10 17 -9 28 7 12 16 11 22 -9 43 -12 14 -41 33 -64 44 -42 19 -69 50 -58 68 3 5 0 12 -5 15 -6 4 -15 18 -21 31 -7 21 -12 23 -29 14 -16 -8 -19 -17 -14 -38 9 -35 34 -73 44 -67 4 2 15 -4 25 -15 15 -16 17 -32 12 -87 -3 -38 -1 -90 5 -118 12 -62 11 -88 -2 -302 -11 -165 -10 -174 10 -215 23 -48 39 -148 23 -148 -6 0 -16 7 -23 15 -16 20 -30 10 -30 -23 0 -16 -4 -22 -9 -17 -6 6 -13 53 -16 105 -11 162 -30 276 -50 300 -7 8 -15 33 -18 55 -4 22 -9 58 -12 80 -6 41 -30 117 -46 147 -5 10 -9 30 -9 45 0 14 -7 34 -15 43 -8 9 -17 33 -19 54 -5 35 -14 58 -43 111 -7 11 -14 28 -17 38 -3 9 -14 17 -24 17 -10 0 -27 9 -37 20 -10 11 -21 17 -25 15 -4 -3 -10 5 -13 16 -3 12 -10 18 -15 15 -13 -8 -64 46 -109 112 -20 31 -47 58 -62 63 -16 6 -36 27 -51 56 -24 45 -26 46 -73 46 -32 0 -55 -6 -70 -19 -21 -19 -83 -23 -72 -5 2 5 -4 16 -15 26 -11 10 -20 24 -20 30 0 7 -20 31 -45 54 -42 38 -63 47 -109 42 -11 -1 -26 5 -36 14 -9 8 -47 17 -88 21 -40 4 -75 11 -78 15 -8 14 -46 10 -78 -6 -15 -8 -33 -12 -39 -8 -6 4 -27 6 -45 5 -23 -2 -39 3 -48 15 -13 17 -15 16 -39 -10 -14 -16 -36 -30 -50 -31 -13 -1 -32 -9 -41 -17 -9 -8 -20 -12 -23 -9 -3 3 -7 -5 -9 -17 -4 -30 49 -63 101 -63 44 0 63 -9 107 -49 61 -56 120 -117 120 -126 0 -4 -24 -5 -52 -2 -284 25 -320 27 -355 18 -21 -6 -56 -13 -78 -16 -22 -3 -49 -10 -60 -15 -35 -15 -60 -23 -73 -24 -7 -1 -17 -8 -23 -16 -8 -13 -11 -13 -20 3 -7 12 -17 15 -37 11 l-27 -7 25 29 c14 16 49 55 78 86 29 31 52 61 52 67 0 6 19 21 41 33 99 54 91 46 73 73 -16 24 -102 70 -151 80 -16 4 -44 13 -63 20 -43 17 -135 24 -174 14z m1147 -334 c15 -14 27 -29 28 -33 8 -63 6 -102 -5 -111 -28 -23 -165 100 -166 149 0 11 14 16 58 18 49 2 61 -1 85 -23z m-1135 -21 c-2 -22 -11 -29 -48 -40 -57 -17 -60 -17 -60 2 0 8 15 21 34 29 19 8 37 19 41 25 13 22 36 10 33 -16z m581 -105 c62 -11 93 -20 133 -40 10 -5 24 -9 31 -9 22 0 64 -24 76 -42 10 -16 7 -18 -22 -18 -18 0 -56 6 -83 14 -68 20 -128 27 -222 27 -68 0 -90 -4 -136 -27 -50 -25 -60 -26 -95 -16 -21 7 -53 12 -71 12 -28 0 -31 2 -20 15 7 8 21 15 31 15 10 0 22 7 26 15 13 23 111 53 172 54 29 0 56 2 59 5 8 9 48 7 121 -5z m-779 -70 c12 -14 37 -20 115 -25 74 -5 105 -11 120 -24 37 -32 65 -41 151 -47 46 -3 87 -10 90 -14 2 -4 -14 -13 -37 -19 -34 -9 -62 -8 -140 5 -109 18 -141 12 -132 -25 10 -39 73 -77 148 -89 261 -41 633 -57 705 -29 14 6 56 14 93 19 53 7 77 16 107 39 38 30 59 75 42 92 -17 17 -95 15 -157 -4 -67 -20 -116 -23 -131 -8 -6 6 -27 11 -47 12 -21 1 -38 7 -42 16 -4 11 0 13 22 6 16 -5 69 -9 120 -8 85 1 94 3 140 33 41 27 54 31 88 26 24 -3 60 1 90 10 28 8 62 15 76 15 81 0 104 -177 31 -243 -21 -19 -101 -38 -168 -41 -22 0 -48 -7 -58 -15 -9 -8 -19 -11 -23 -8 -3 4 -17 -3 -31 -13 -13 -11 -30 -20 -36 -20 -42 -1 -180 -140 -159 -161 5 -5 26 -15 48 -22 21 -8 40 -18 41 -23 1 -5 -18 -27 -42 -48 -36 -31 -54 -40 -94 -44 -56 -5 -94 12 -103 49 -6 21 -4 22 53 16 67 -7 90 6 70 42 -14 27 -41 41 -79 41 -40 0 -118 18 -158 37 -36 17 -16 32 -177 -136 -54 -56 -62 -61 -102 -61 -44 0 -84 25 -84 52 0 6 -9 22 -21 34 -25 27 -21 36 26 58 20 10 35 24 35 34 0 10 -26 45 -57 78 -71 75 -127 99 -265 113 -53 5 -105 15 -115 21 -68 43 -84 201 -28 268 28 33 53 36 75 11z m782 -69 c38 -4 75 -14 81 -20 9 -10 9 -11 0 -6 -6 3 -14 2 -17 -2 -3 -5 -27 -8 -52 -6 -26 2 -52 -1 -59 -6 -7 -6 -20 -8 -28 -4 -9 3 -32 0 -52 -6 -31 -10 -39 -9 -54 4 -10 9 -26 16 -37 17 -11 0 -2 8 24 19 23 11 49 17 57 14 7 -3 22 -1 32 4 10 6 22 8 26 5 5 -3 41 -9 79 -13z m482 -346 c3 -8 10 -12 16 -9 16 10 11 -42 -6 -59 -23 -23 -43 -20 -54 9 -5 14 -15 25 -22 25 -14 1 37 50 51 50 5 0 12 -7 15 -16z m-1114 -36 l0 -31 -25 23 c-27 25 -25 40 6 40 15 0 19 -7 19 -32z m-282 -42 c-4 -17 4 -20 30 -12 14 5 29 3 37 -4 8 -6 29 -20 47 -29 78 -42 83 -46 80 -65 -2 -10 0 -22 5 -26 10 -10 53 6 53 20 0 6 -10 15 -22 20 l-23 9 22 0 c12 1 29 11 38 24 8 12 19 21 23 21 4 -1 18 2 31 7 13 5 25 8 27 6 2 -2 -5 -36 -15 -75 l-19 -72 32 -23 c17 -12 42 -23 56 -24 56 -5 98 -23 129 -57 35 -37 79 -34 154 11 38 22 73 35 91 34 15 -1 34 3 42 9 9 8 18 8 33 1 11 -6 33 -11 49 -11 16 0 35 -6 41 -14 21 -26 78 -26 134 -2 29 13 81 31 117 40 61 16 65 16 78 -1 9 -12 12 -33 8 -59 -3 -23 -3 -44 0 -47 6 -5 89 38 116 61 9 7 21 11 27 8 5 -4 26 8 45 26 62 58 110 94 146 111 19 9 57 39 84 67 54 55 98 68 93 28 -1 -17 5 -24 32 -32 28 -8 36 -7 47 9 8 10 14 27 14 37 0 20 35 42 51 33 5 -4 16 -2 24 5 10 9 21 7 47 -6 18 -10 49 -16 68 -15 30 1 40 -4 59 -29 18 -26 25 -29 37 -19 12 10 19 9 35 -7 14 -15 21 -38 25 -89 2 -38 10 -75 16 -83 9 -10 8 -22 -1 -49 -15 -40 -2 -65 23 -44 11 9 17 8 30 -4 9 -9 16 -22 16 -28 0 -11 5 -86 13 -199 2 -20 -1 -34 -5 -32 -14 9 -22 -28 -9 -48 6 -10 9 -23 6 -28 -4 -6 0 -13 8 -16 11 -4 13 -14 7 -40 -4 -19 -5 -36 -1 -39 8 -4 7 -77 -5 -295 -7 -138 -7 -138 -19 -228 -5 -44 -11 -60 -18 -53 -12 12 -37 -4 -37 -23 0 -23 22 -37 37 -24 12 10 13 6 7 -18 -8 -35 -13 -41 -39 -46 -29 -5 -29 -88 0 -103 17 -8 19 -14 10 -31 -6 -12 -17 -29 -24 -37 -9 -12 -10 -21 -1 -37 6 -11 15 -18 21 -15 10 7 13 -18 3 -28 -3 -3 -8 -29 -10 -58 -4 -53 -51 -166 -79 -189 -8 -7 -15 -23 -15 -35 0 -14 -13 -35 -33 -52 -32 -27 -43 -45 -67 -111 -7 -18 -22 -38 -34 -44 -30 -16 -85 -71 -80 -80 3 -4 -9 -14 -26 -23 -16 -8 -30 -20 -30 -25 0 -9 -39 -26 -52 -22 -4 1 -19 -3 -32 -8 -14 -5 -28 -6 -30 -1 -7 11 -69 1 -81 -13 -5 -7 -23 -16 -38 -20 -23 -5 -28 -4 -25 11 2 11 -3 18 -12 18 -8 0 -14 -7 -12 -17 1 -9 -3 -20 -9 -24 -8 -4 -9 -3 -5 5 15 24 -24 21 -81 -6 -32 -15 -60 -28 -63 -29 -3 0 -13 -4 -22 -8 -10 -5 -69 -5 -132 -2 -84 5 -131 2 -177 -9 -56 -13 -65 -13 -72 0 -5 10 -25 15 -59 15 -40 0 -59 -6 -85 -26 -27 -21 -37 -23 -48 -14 -17 14 -46 6 -43 -12 2 -7 -4 -12 -12 -10 -44 10 -119 10 -147 0 -25 -9 -38 -9 -56 1 -28 15 -79 7 -98 -15 -8 -9 -27 -14 -54 -13 -22 2 -48 -1 -55 -6 -21 -13 -52 -14 -73 -3 -12 6 -23 5 -33 -3 -11 -9 -18 -8 -34 6 -11 10 -26 15 -36 11 -9 -3 -29 3 -45 15 -17 12 -33 19 -36 15 -3 -3 -15 1 -27 9 -11 8 -28 15 -37 15 -9 0 -24 9 -34 20 -9 10 -33 24 -52 31 -19 6 -32 14 -29 17 11 10 -16 32 -39 32 -13 0 -43 19 -71 45 -35 33 -55 45 -72 42 -26 -5 -68 33 -87 78 -7 17 -27 47 -44 69 -17 21 -31 44 -31 51 0 7 -9 24 -21 39 -11 14 -18 26 -14 26 3 0 -3 13 -14 29 -39 54 -95 176 -92 199 1 13 -3 29 -9 37 -8 10 -8 19 0 34 6 13 7 27 1 38 -27 55 -40 136 -22 147 5 4 3 26 -5 52 -7 25 -13 49 -12 52 1 4 -5 27 -12 50 -11 35 -11 48 -2 63 15 23 6 43 -15 35 -11 -4 -13 -1 -8 14 3 11 1 72 -5 137 -6 65 -14 143 -16 173 -12 124 -11 226 1 255 7 17 16 38 19 48 3 10 10 16 15 12 15 -8 35 35 23 47 -13 13 -32 2 -32 -19 0 -9 -2 -14 -5 -11 -3 3 -1 26 6 52 12 48 32 60 53 31 6 -9 23 -16 36 -17 14 -1 30 -5 37 -10 21 -16 23 9 3 51 -11 22 -27 41 -35 41 -9 0 -15 9 -15 24 0 28 39 43 70 26 24 -13 44 -4 36 16 -3 7 4 18 14 24 24 13 26 33 5 50 -25 21 -30 78 -11 131 10 27 14 54 10 61 -4 7 2 5 13 -5 19 -16 21 -16 37 1 9 11 14 26 10 36 -11 29 15 46 71 46 46 0 56 4 77 28 12 15 43 37 67 48 l44 21 44 -25 c24 -13 42 -29 41 -36z m2500 -36 c7 -20 16 -28 26 -24 16 6 87 -42 116 -79 21 -27 50 -132 50 -184 0 -17 4 -34 9 -37 9 -6 -8 -80 -41 -173 -22 -65 -36 -73 -72 -44 -20 17 -20 35 -1 51 8 7 15 20 15 30 0 9 9 25 20 35 16 14 19 30 19 94 0 49 -5 81 -14 91 -7 8 -30 46 -50 85 -46 90 -72 117 -95 105 -20 -11 -30 4 -30 44 0 46 33 50 48 6z m-3217 -73 c-6 -6 -11 -22 -11 -36 0 -24 -1 -24 -14 -6 -12 16 -12 22 1 42 8 13 20 20 25 17 6 -4 6 -10 -1 -17z m210 -235 c2 2 2 -1 -2 -5 -9 -12 -39 3 -39 21 0 13 2 13 18 -1 10 -10 21 -16 23 -15z"/>
 <path d="M4035 4130 c-4 -6 -3 -16 3 -22 6 -6 12 -6 17 2 4 6 3 16 -3 22 -6 6 -12 6 -17 -2z"/>
 <path d="M1912 4098 c-16 -16 -15 -33 3 -48 12 -10 18 -10 30 0 20 17 19 37 -3 49 -13 7 -23 6 -30 -1z"/>
 <path d="M4231 3928 c-11 -30 5 -54 26 -36 16 13 14 50 -5 56 -6 2 -16 -7 -21 -20z"/>
 <path d="M2526 3771 c-10 -15 5 -42 46 -84 21 -22 36 -43 33 -47 -6 -10 27 -36 45 -35 12 0 14 11 12 50 -4 51 -15 75 -36 75 -6 0 -28 11 -48 25 -41 28 -44 29 -52 16z"/>
 <path d="M4226 3657 c-16 -12 -17 -14 -1 -27 14 -11 18 -11 32 2 8 9 12 21 9 27 -9 14 -18 14 -40 -2z"/>
 <path d="M2055 3589 c-60 -16 -124 -36 -142 -44 -17 -8 -42 -15 -55 -15 -24 0 -83 -19 -106 -34 -9 -5 -19 -3 -29 7 -17 16 -87 13 -111 -6 -7 -6 -37 -11 -65 -11 l-52 -1 -2 -45 c-5 -75 20 -149 55 -165 12 -5 22 -16 22 -23 0 -7 6 -15 14 -18 17 -6 29 -52 29 -102 0 -23 -7 -38 -22 -49 -18 -12 -20 -18 -10 -29 9 -11 15 -11 25 -3 9 7 14 8 14 1 0 -6 3 -18 6 -27 5 -11 2 -15 -7 -13 -8 1 -14 -2 -14 -7 0 -6 4 -9 10 -8 5 2 18 -14 27 -35 9 -20 25 -48 34 -60 17 -23 17 -24 -1 -20 -15 2 -19 -3 -19 -22 0 -18 5 -24 17 -22 10 2 16 -3 15 -10 -2 -7 17 -23 40 -35 24 -12 49 -28 55 -35 7 -8 36 -29 64 -48 29 -19 53 -38 53 -42 0 -21 80 -40 222 -53 15 -2 64 3 109 11 45 8 84 13 86 10 3 -2 26 7 53 20 26 13 56 24 67 24 10 0 23 4 29 8 11 10 97 31 138 34 15 2 36 12 45 23 10 13 31 21 56 23 26 2 47 11 60 25 17 19 31 22 90 22 53 0 74 4 87 17 17 17 19 16 42 -7 14 -14 36 -25 49 -25 16 0 28 -9 36 -26 8 -19 17 -25 32 -21 13 4 25 -2 36 -19 9 -14 23 -24 32 -23 9 2 32 -4 51 -13 19 -8 64 -18 99 -22 35 -4 100 -18 145 -32 149 -45 181 -53 206 -53 14 1 30 0 35 -2 21 -6 208 13 234 24 49 22 156 95 189 130 23 24 40 33 53 30 14 -4 22 0 25 14 4 14 14 19 40 19 60 0 66 15 66 164 0 104 3 138 15 157 18 26 12 105 -9 131 -7 8 -17 23 -23 35 -5 11 -25 28 -42 37 -18 9 -30 19 -28 22 11 10 -34 39 -64 41 -17 1 -31 8 -31 15 0 7 -8 16 -17 19 -10 4 -32 17 -49 30 -17 13 -38 23 -46 23 -8 0 -31 11 -50 24 -20 13 -55 27 -79 31 -24 4 -53 13 -64 20 -18 12 -131 28 -180 26 -62 -2 -117 -11 -148 -25 -51 -21 -157 -47 -167 -41 -5 3 -26 -4 -47 -15 -21 -11 -48 -20 -60 -20 -22 0 -65 -37 -108 -94 -13 -17 -32 -67 -43 -111 -28 -110 -37 -131 -66 -151 -24 -15 -28 -15 -68 6 -24 12 -53 27 -65 34 -19 9 -43 69 -48 121 -13 128 -67 218 -144 241 -29 8 -35 15 -34 32 2 16 -5 25 -24 33 -23 9 -29 6 -49 -18 -21 -27 -26 -28 -103 -28 -68 1 -83 4 -95 20 -9 11 -16 16 -16 11 0 -5 -6 -4 -13 2 -14 12 -139 43 -165 41 -9 -1 -66 -14 -127 -30z m250 -98 c65 -31 200 -86 260 -106 39 -13 70 -28 70 -33 0 -6 3 -14 7 -17 4 -4 -3 -16 -15 -26 -20 -16 -21 -19 -6 -34 14 -14 18 -14 43 6 l27 22 30 -34 c26 -30 29 -40 26 -87 -2 -30 -10 -58 -19 -65 -23 -19 -48 -64 -48 -86 0 -11 -4 -22 -9 -25 -4 -3 -11 -30 -15 -60 -9 -78 -21 -106 -48 -106 -12 0 -31 -9 -42 -19 -12 -11 -32 -21 -46 -24 -14 -2 -56 -18 -95 -36 -38 -18 -85 -40 -104 -48 -56 -25 -312 -18 -367 10 -16 8 -35 12 -42 10 -15 -6 -128 96 -154 139 -11 17 -21 45 -23 62 -1 17 -6 44 -10 59 -6 24 -2 32 26 58 18 16 38 29 46 29 7 0 41 -20 76 -44 52 -35 76 -44 125 -50 37 -4 70 -15 86 -27 20 -16 34 -19 59 -14 36 8 69 33 61 46 -3 5 9 12 26 15 35 8 47 21 31 37 -8 8 -6 16 5 29 16 16 15 18 -12 29 -16 6 -49 12 -74 14 -59 4 -192 49 -238 80 -40 27 -61 20 -43 -14 11 -19 80 -72 111 -84 12 -4 11 -6 -3 -6 -35 -2 -103 38 -145 84 -40 44 -42 49 -28 69 9 14 11 28 6 36 -12 20 16 36 65 38 22 2 52 11 66 21 25 19 26 19 38 -1 7 -11 18 -17 27 -14 9 3 12 1 9 -4 -3 -6 -12 -10 -19 -10 -8 0 -24 -8 -37 -19 l-23 -19 42 -21 c57 -29 68 -27 98 22 15 23 32 46 38 50 6 5 43 6 83 3 80 -5 122 -27 123 -62 0 -12 7 -28 16 -35 14 -11 20 -9 44 20 18 23 29 30 34 22 6 -9 11 -9 22 0 7 6 11 15 8 21 -3 5 -11 5 -19 -2 -9 -7 -16 -6 -25 5 -14 16 -2 20 51 16 14 -1 31 5 38 13 10 12 8 17 -9 26 -11 6 -34 13 -51 15 -17 2 -36 9 -44 15 -8 7 -15 7 -19 1 -4 -6 -16 -4 -33 4 -15 8 -38 12 -50 10 -13 -3 -33 -7 -46 -10 -19 -4 -23 0 -23 17 1 33 -56 45 -90 19 -26 -20 -59 -18 -68 5 -3 8 -16 14 -29 14 -25 0 -77 21 -77 32 0 7 32 14 110 23 30 3 61 9 68 14 15 9 117 -3 147 -18z m1440 -2 c4 -5 19 -15 33 -21 l27 -11 -40 -9 c-22 -6 -49 -11 -60 -11 -11 -1 -24 -12 -30 -24 -6 -16 -15 -21 -27 -17 -10 3 -23 2 -29 -2 -7 -4 -40 -8 -75 -9 -34 -1 -70 -7 -78 -14 -9 -8 -25 -11 -36 -8 -26 7 -115 -27 -115 -44 0 -10 21 -15 79 -17 64 -2 76 -5 63 -15 -15 -11 -13 -16 12 -47 25 -29 31 -32 44 -21 9 7 21 28 27 46 12 37 20 40 121 50 60 6 69 5 88 -14 12 -12 24 -35 28 -52 3 -17 16 -37 29 -46 22 -14 26 -13 64 18 l40 33 -20 21 c-16 17 -18 24 -8 32 22 17 57 21 68 8 6 -7 26 -16 45 -19 38 -8 40 -11 22 -43 -41 -73 -272 -169 -380 -157 -14 1 -32 -4 -39 -13 -19 -23 40 -73 86 -73 99 0 223 59 305 144 38 39 51 44 51 21 0 -76 -117 -156 -270 -184 -79 -15 -113 -26 -117 -37 -6 -19 44 -55 78 -56 56 -1 143 13 167 29 18 11 30 12 63 1 35 -10 43 -10 53 3 18 25 86 27 99 4 6 -11 15 -14 30 -9 19 6 20 5 9 -9 -8 -9 -11 -25 -7 -36 12 -39 -22 -84 -104 -138 -43 -29 -91 -57 -106 -63 -32 -12 -316 -21 -330 -10 -5 4 -46 13 -90 20 -44 6 -99 21 -122 31 -23 10 -46 19 -50 19 -4 0 -15 15 -24 33 -10 20 -33 41 -63 56 -45 24 -47 27 -45 63 2 20 0 40 -4 44 -15 15 30 33 61 25 17 -5 33 -7 36 -3 9 9 -36 52 -47 45 -6 -3 -7 -2 -4 4 4 6 -9 36 -28 68 -19 31 -33 61 -30 65 3 5 1 11 -5 15 -5 3 -10 19 -10 36 0 31 -3 30 99 33 39 2 48 28 23 70 -27 45 -27 46 -3 46 10 0 33 14 51 30 18 17 34 30 36 30 3 0 17 9 32 20 70 51 307 102 327 69z"/>
 <path d="M1574 3556 c-4 -10 -2 -22 4 -28 8 -8 13 -7 18 6 4 10 2 22 -4 28 -8 8 -13 7 -18 -6z"/>
 <path d="M1544 3154 c-14 -33 -14 -39 -1 -52 27 -26 49 -7 45 40 -4 54 -24 60 -44 12z"/>
 <path d="M1595 2930 c-8 -12 20 -24 35 -15 6 3 8 11 5 16 -8 12 -32 12 -40 -1z"/>
 <path d="M4305 2630 c-4 -6 -3 -16 3 -22 6 -6 12 -6 17 2 4 6 3 16 -3 22 -6 6 -12 6 -17 -2z"/>
 <path d="M4295 2580 c-4 -7 -3 -16 3 -22 14 -14 45 -2 40 15 -6 16 -34 21 -43 7z"/>
 <path d="M4275 2530 c-10 -11 -15 -26 -11 -36 6 -15 8 -15 26 1 11 10 20 24 20 31 0 22 -17 24 -35 4z"/>
 <path d="M2646 1771 c-8 -13 11 -61 24 -61 21 0 50 21 50 36 0 22 -63 44 -74 25z"/>
 <path d="M1665 5121 c-7 -12 12 -24 25 -16 11 7 4 25 -10 25 -5 0 -11 -4 -15 -9z"/>
 <path d="M2853 5099 c-13 -13 8 -81 27 -87 12 -4 49 34 50 51 0 12 -39 47 -53 47 -7 0 -18 -5 -24 -11z"/>
 <path d="M1675 5001 c-7 -12 12 -24 25 -16 11 7 4 25 -10 25 -5 0 -11 -4 -15 -9z"/>
 <path d="M4340 4975 c-9 -11 -10 -19 -3 -26 7 -7 14 -5 23 6 9 11 10 19 3 26 -7 7 -14 5 -23 -6z"/>
 <path d="M4526 4872 c-3 -6 1 -15 8 -21 8 -7 17 -8 20 -3 3 6 -1 15 -8 21 -8 7 -17 8 -20 3z"/>
 <path d="M1469 4736 c-3 -13 -6 -22 -14 -39 -4 -11 -3 -23 3 -29 8 -8 13 -7 18 6 4 9 4 20 0 23 -3 3 -1 12 5 19 7 8 7 14 -1 19 -5 3 -11 4 -11 1z"/>
 <path d="M1474 4645 c-7 -18 13 -71 23 -62 3 4 14 2 24 -3 12 -7 20 -7 24 0 3 6 -1 13 -9 16 -9 3 -16 11 -16 16 0 6 6 6 14 -1 10 -8 16 -9 21 -1 8 13 -4 32 -16 24 -5 -3 -21 2 -35 10 -22 15 -25 15 -30 1z"/>
 <path d="M1456 4571 c-10 -15 3 -32 21 -29 9 2 18 -3 20 -10 3 -7 1 -11 -4 -10 -4 2 -9 -1 -11 -6 -4 -15 26 -16 38 -1 16 19 -6 71 -23 56 -10 -7 -17 -7 -24 0 -8 8 -13 8 -17 0z"/>
 <path d="M1351 3258 c-23 -50 -37 -104 -37 -135 1 -27 21 -31 22 -5 1 24 24 105 34 117 12 17 19 55 9 60 -5 3 -17 -13 -28 -37z"/>
 <path d="M4545 3240 c-9 -15 25 -74 37 -62 6 6 4 20 -6 41 -18 33 -22 36 -31 21z"/>
 <path d="M4586 3141 c-4 -5 -2 -12 4 -16 6 -4 8 -10 5 -15 -3 -5 -1 -11 4 -14 5 -4 12 -2 15 3 4 5 2 12 -4 16 -6 4 -8 10 -5 15 3 5 1 11 -4 14 -5 4 -12 2 -15 -3z"/>
 <path d="M1310 3061 c-14 -26 -4 -47 15 -31 13 11 14 34 3 46 -4 3 -11 -4 -18 -15z"/>
 <path d="M4609 3079 c-6 -35 -6 -60 1 -64 4 -3 7 -27 5 -55 -2 -27 0 -52 4 -55 5 -2 7 -18 6 -35 -1 -17 1 -33 6 -36 5 -3 6 -10 3 -16 -22 -36 -19 -161 5 -206 6 -12 10 -25 9 -31 -2 -5 1 -9 7 -10 16 -1 4 103 -15 139 -8 14 -8 26 0 40 6 11 8 20 6 20 -3 0 -1 11 4 24 5 13 6 27 2 31 -4 4 -8 20 -8 36 -1 16 -2 30 -4 32 -1 1 -3 25 -4 54 -1 29 -5 55 -8 59 -4 3 -3 16 2 29 6 17 5 27 -6 35 -7 7 -14 11 -15 9z"/>
 <path d="M1298 2963 c-8 -17 -2 -103 7 -103 11 0 14 99 3 106 -3 2 -8 1 -10 -3z"/>
 <path d="M1309 2818 c-1 -2 -2 -14 -3 -28 0 -14 -5 -30 -9 -37 -4 -6 -3 -14 3 -18 5 -3 11 -4 11 -1 4 17 7 26 9 29 6 8 5 49 -2 53 -4 3 -8 4 -9 2z"/>
 <path d="M1309 2709 c-1 -2 -3 -26 -4 -54 -2 -27 -4 -50 -5 -50 -1 0 -3 -14 -4 -32 -1 -17 -9 -40 -19 -51 -9 -10 -14 -21 -11 -24 3 -4 7 -14 8 -25 6 -40 23 -17 29 42 2 11 5 25 9 30 3 6 4 21 3 35 -1 14 1 30 6 35 10 13 7 81 -4 91 -4 4 -8 5 -8 3z"/>
 <path d="M4656 2502 c-3 -6 1 -15 8 -21 8 -7 17 -8 20 -3 3 6 -1 15 -8 21 -8 7 -17 8 -20 3z"/>
 <path d="M4665 2450 c-4 -6 -3 -16 3 -22 6 -6 12 -6 17 2 4 6 3 16 -3 22 -6 6 -12 6 -17 -2z"/>
 <path d="M1256 2358 c-14 -32 -7 -56 12 -44 13 8 21 65 10 72 -5 3 -15 -10 -22 -28z"/>
 <path d="M4664 2376 c-4 -10 -2 -22 4 -28 8 -8 13 -7 18 6 4 10 2 22 -4 28 -8 8 -13 7 -18 -6z"/>
 <path d="M1262 2293 c-5 -10 -7 -23 -5 -30 2 -6 -5 -17 -17 -23 -28 -15 -22 -58 12 -83 31 -23 53 -15 38 14 -6 11 -15 17 -19 14 -18 -10 -19 24 -2 39 10 9 17 29 16 46 -2 38 -11 47 -23 23z"/>
 <path d="M4680 2265 c-7 -8 -9 -15 -5 -15 4 0 3 -6 -2 -12 -5 -7 -9 -20 -8 -28 1 -8 -2 -23 -7 -32 -13 -27 8 -30 26 -3 9 13 12 26 7 30 -12 7 -8 29 7 48 8 9 9 18 4 21 -6 3 -15 -1 -22 -9z"/>
 <path d="M1255 2121 c-3 -5 -1 -13 5 -16 8 -5 7 -11 -1 -21 -6 -8 -9 -15 -5 -15 3 -1 11 -3 16 -4 6 -1 13 -3 16 -4 4 0 1 -7 -5 -15 -15 -18 5 -34 22 -17 6 6 7 11 3 11 -5 0 -3 7 4 15 10 12 9 16 -4 21 -12 5 -14 10 -6 19 9 10 6 16 -9 24 -24 13 -28 14 -36 2z"/>
 <path d="M4639 2114 c-8 -9 -14 -27 -14 -38 -1 -12 -4 -27 -8 -33 -10 -15 1 -36 13 -28 5 3 14 -4 20 -15 6 -11 15 -18 20 -15 11 7 4 45 -10 59 -5 5 -6 14 -1 20 14 17 17 59 5 63 -6 2 -17 -4 -25 -13z"/>
 <path d="M4610 1975 c-26 -14 -30 -30 -7 -30 6 0 12 -6 12 -12 0 -14 14 -18 16 -5 0 4 7 14 15 23 22 25 -3 42 -36 24z"/>
 <path d="M4670 1961 c-5 -11 -6 -22 -1 -25 11 -7 43 28 34 37 -11 12 -22 8 -33 -12z"/>
 <path d="M4715 1960 c-10 -17 12 -37 25 -24 8 8 6 15 -4 23 -10 9 -16 9 -21 1z"/>
 <path d="M1302 1943 c-16 -33 -7 -76 18 -85 36 -13 45 5 20 40 -12 17 -20 35 -16 40 3 6 2 13 -3 17 -6 3 -14 -2 -19 -12z"/>
 <path d="M4637 1903 c-4 -3 -1 -13 6 -21 6 -8 13 -27 14 -41 2 -25 9 -64 13 -68 2 -2 3 -7 4 -12 2 -14 11 -21 34 -26 26 -5 38 11 23 29 -6 7 -8 16 -4 19 3 4 1 13 -6 21 -6 8 -11 18 -10 22 4 22 -3 37 -27 59 -28 26 -36 29 -47 18z m61 -81 c6 -18 -15 -14 -22 4 -4 10 -1 14 6 12 6 -2 14 -10 16 -16z"/>
 <path d="M1371 1802 c-6 -11 -7 -22 -4 -26 3 -3 7 -16 9 -29 1 -12 3 -22 4 -22 1 0 3 -8 5 -18 5 -28 56 -97 66 -91 10 6 8 10 -31 69 -19 29 -27 52 -26 83 1 49 -8 62 -23 34z"/>
 <path d="M4567 1774 c-8 -8 10 -55 30 -76 23 -25 37 -11 18 18 -8 13 -13 24 -10 24 3 0 1 9 -5 20 -11 20 -22 25 -33 14z"/>
 <path d="M4548 1733 c-7 -14 -3 -33 6 -33 12 -1 17 28 6 35 -5 3 -10 2 -12 -2z"/>
 <path d="M4669 1723 c-4 -30 -1 -105 5 -110 3 -4 12 8 18 25 15 38 23 40 32 10 4 -17 8 -20 17 -11 8 8 8 18 -2 38 -13 25 -38 36 -32 14 2 -4 -4 -6 -12 -2 -11 4 -13 9 -5 18 5 6 7 15 3 18 -9 9 -23 9 -24 0z"/>
 <path d="M4615 1666 c-11 -8 -14 -16 -8 -19 6 -4 18 0 28 7 11 8 14 16 8 19 -6 4 -18 0 -28 -7z"/>
 <path d="M4569 1666 c-6 -28 -1 -51 11 -48 11 3 11 0 1 -12 -7 -8 -8 -17 -3 -20 6 -3 15 0 21 8 9 10 7 16 -4 26 -9 7 -14 19 -11 26 3 7 1 16 -4 19 -6 4 -10 4 -11 1z"/>
 <path d="M4635 1619 c-4 -5 -5 -13 -2 -15 3 -3 -10 -22 -28 -42 -19 -20 -32 -39 -29 -43 2 -4 -3 -12 -11 -19 -8 -7 -15 -19 -15 -27 0 -8 -4 -12 -9 -9 -5 3 -14 -1 -21 -9 -7 -8 -9 -15 -4 -15 5 0 1 -5 -9 -11 -9 -6 -15 -14 -12 -19 3 -4 -1 -10 -9 -13 -8 -3 -13 -14 -11 -24 2 -10 4 -20 4 -22 1 -3 15 8 32 25 30 28 86 124 73 124 -4 0 -1 6 5 13 6 8 8 17 4 21 -4 4 0 4 9 1 24 -9 68 39 61 66 -7 24 -19 33 -28 18z"/>
 <path d="M1485 1560 c-8 -13 14 -52 25 -45 6 3 7 0 4 -8 -6 -18 12 -32 21 -17 4 6 0 19 -9 29 -9 10 -16 23 -16 29 0 15 -17 24 -25 12z"/>
 <path d="M1557 1454 c-14 -14 28 -78 44 -68 5 3 7 10 3 15 -3 5 -9 7 -14 4 -4 -3 -6 3 -3 13 4 19 -19 47 -30 36z"/>
 <path d="M4435 1340 c-8 -12 20 -24 35 -15 6 3 8 11 5 16 -8 12 -32 12 -40 -1z"/>
 <path d="M4349 1293 c-1 -4 -2 -15 -3 -23 0 -8 -6 -14 -12 -13 -6 1 -21 -8 -33 -21 -30 -32 -9 -44 21 -14 13 13 27 23 32 23 12 0 15 44 4 51 -4 3 -9 2 -9 -3z"/>
 <path d="M1696 1282 c-3 -6 1 -15 8 -21 8 -7 17 -8 20 -3 3 6 -1 15 -8 21 -8 7 -17 8 -20 3z"/>
 <path d="M1736 1232 c-3 -5 3 -17 13 -26 11 -10 22 -13 25 -8 3 5 -3 17 -13 26 -11 10 -22 13 -25 8z"/>
 <path d="M4249 1186 c-1 -3 -2 -10 -3 -15 -2 -18 -18 -26 -49 -26 -27 0 -32 -4 -31 -23 1 -12 -2 -19 -7 -17 -4 3 -10 1 -14 -4 -3 -5 3 -14 12 -20 14 -8 11 -9 -17 -8 -19 1 -41 6 -47 10 -13 8 -14 7 -17 -13 0 -6 -16 -19 -34 -30 -18 -11 -30 -25 -27 -30 4 -6 15 -4 28 4 12 8 31 12 42 10 11 -2 27 -1 35 3 8 3 17 7 20 8 3 0 19 9 37 18 21 11 30 22 27 32 -4 10 -2 13 8 10 8 -3 21 1 28 10 7 8 10 15 6 15 -3 0 3 9 15 21 11 11 19 25 17 32 -5 12 -27 22 -29 13z"/>
 <path d="M1876 1121 c-6 -8 5 -20 31 -35 23 -13 22 12 -2 28 -13 9 -26 12 -29 7z"/>
 <path d="M1957 1063 c-8 -8 56 -83 65 -76 5 2 0 18 -9 35 -19 31 -46 52 -56 41z"/>
 <path d="M3964 986 c-10 -8 -22 -14 -26 -15 -5 0 -8 -3 -8 -6 0 -4 6 -6 13 -4 1 0 10 2 21 4 24 5 41 21 29 28 -6 4 -18 0 -29 -7z"/>
 <path d="M2052 958 c-8 -8 2 -26 40 -70 28 -32 53 -56 56 -53 3 3 14 -2 24 -12 10 -9 18 -13 18 -9 0 3 11 -1 24 -9 15 -10 26 -12 30 -6 4 5 -3 15 -14 21 -11 6 -20 8 -20 4 0 -4 -10 2 -23 14 -13 12 -26 20 -29 17 -6 -6 -85 85 -86 98 -1 15 -8 17 -20 5z"/>
 <path d="M3875 936 c-11 -8 -14 -16 -8 -19 6 -4 18 0 28 7 11 8 14 16 8 19 -6 4 -18 0 -28 -7z"/>
 <path d="M3807 885 c-22 -19 -34 -36 -28 -39 6 -4 27 8 47 27 48 44 31 55 -19 12z"/>
 <path d="M3625 830 c-4 -6 -10 -8 -15 -5 -5 3 -11 1 -14 -4 -4 -5 -2 -12 3 -15 5 -4 12 -2 16 4 4 6 10 8 15 5 5 -3 11 -1 14 4 4 5 2 12 -3 15 -5 4 -12 2 -16 -4z"/>
 <path d="M3298 814 c-3 -3 -19 -7 -34 -9 -45 -6 -86 -24 -79 -35 4 -6 14 -8 23 -6 10 3 35 8 57 12 43 6 68 21 59 35 -6 10 -18 12 -26 3z"/>
 <path d="M3345 811 c-3 -6 4 -15 15 -21 11 -6 20 -8 20 -4 0 3 6 2 13 -3 15 -12 59 -2 55 12 -2 6 -19 10 -38 10 -19 0 -40 4 -47 8 -6 4 -14 3 -18 -2z"/>
 <path d="M3546 813 c-4 -5 -20 -9 -34 -9 -36 -2 -36 -2 -22 -19 10 -12 16 -12 34 -3 11 7 24 12 29 13 8 0 11 14 5 21 -3 2 -8 1 -12 -3z"/>
 <path d="M3115 800 c-4 -6 -10 -8 -15 -5 -5 3 -11 1 -15 -5 -4 -6 -11 -8 -16 -4 -6 3 -19 -2 -31 -13 -11 -10 -22 -17 -24 -15 -2 1 -4 0 -4 -3 0 -3 0 -8 0 -11 0 -4 7 -1 15 6 8 7 15 9 15 6 0 -4 10 -1 23 6 12 7 25 12 29 13 3 0 10 3 13 7 4 4 15 3 25 -2 22 -12 34 -1 19 17 -14 16 -26 17 -34 3z"/>
 <path d="M2325 751 c-7 -13 32 -34 47 -25 7 5 5 11 -7 21 -22 15 -32 16 -40 4z"/>
 <path d="M2975 740 c-12 -19 -56 -31 -70 -20 -9 8 -15 8 -20 0 -3 -5 -3 -10 1 -10 4 0 -1 -6 -12 -14 -18 -14 -18 -15 -1 -21 11 -5 26 0 39 11 12 11 18 14 15 7 -16 -27 12 -20 42 11 19 19 28 36 23 40 -6 3 -14 1 -17 -4z"/>
 <path d="M2814 725 c-18 -14 -17 -16 16 -19 20 -2 41 14 34 25 -8 13 -28 11 -50 -6z"/>
 <path d="M2425 690 c-3 -5 -4 -11 -1 -11 13 -3 22 -6 39 -14 11 -4 23 -3 29 3 8 8 7 13 -6 18 -9 4 -20 4 -23 0 -3 -3 -12 -1 -19 5 -8 7 -14 7 -19 -1z"/>
 <path d="M2665 680 c-3 -6 0 -12 7 -15 18 -7 49 0 49 10 0 13 -48 17 -56 5z"/>
 </g>
<g id="layer103" fill="#dbc7b4" stroke="none">
 <path d="M1884 7450 c1 -22 5 -42 9 -46 3 -3 2 -17 -4 -30 -7 -19 -5 -26 6 -31 13 -5 13 -7 -2 -19 -15 -11 -16 -16 -6 -33 7 -11 9 -23 4 -26 -12 -7 -7 -38 6 -42 14 -5 46 46 39 63 -3 7 0 13 6 11 6 -1 17 9 25 23 15 29 18 10 3 -20 -5 -11 -14 -29 -20 -40 -5 -11 -10 -25 -10 -32 0 -7 -6 -25 -14 -40 -12 -23 -12 -29 1 -47 14 -20 12 -23 -14 -25 -14 -1 -18 -21 -5 -21 4 0 13 -4 20 -8 15 -10 6 -29 -13 -25 -8 2 -14 -1 -14 -7 -1 -5 4 -11 9 -11 23 -3 24 -5 10 -14 -8 -5 -15 -17 -15 -27 0 -10 -4 -24 -8 -30 -5 -7 -6 -17 -2 -22 3 -5 1 -12 -4 -15 -5 -4 -8 -25 -7 -49 1 -23 -2 -47 -6 -53 -5 -7 -11 -29 -13 -50 -2 -22 -5 -41 -6 -44 -1 -3 -3 -16 -4 -30 -8 -89 -17 -145 -25 -155 -5 -7 -8 -14 -5 -17 3 -3 -4 -46 -16 -96 -21 -91 -21 -113 -7 -340 3 -49 10 -78 21 -89 15 -15 17 -15 22 -1 4 9 2 32 -4 52 -6 23 -6 34 0 30 15 -9 39 16 39 41 0 13 7 25 15 29 25 9 17 26 -16 38 l-32 11 24 18 c17 13 26 14 31 6 17 -27 72 -7 63 23 -3 10 0 20 9 23 17 7 48 66 40 78 -10 16 7 31 21 19 9 -8 15 -8 20 0 8 13 -3 32 -15 25 -10 -6 -25 14 -16 22 8 9 46 -27 46 -44 0 -21 48 -39 63 -24 9 9 9 16 -1 31 -6 11 -12 26 -12 34 0 8 -7 19 -16 24 -13 8 -13 12 3 43 10 19 19 36 20 38 1 1 29 4 63 6 50 3 59 1 50 -10 -8 -9 -8 -15 0 -20 16 -10 30 4 23 23 -6 14 -4 15 9 4 21 -17 47 10 29 32 -8 9 -8 21 0 45 6 17 8 39 4 49 -5 13 -4 14 6 5 10 -10 17 -7 36 13 l24 26 20 -27 c22 -27 34 -26 34 3 0 9 8 17 17 17 22 0 69 70 61 91 -5 13 -2 15 13 7 39 -20 164 3 149 28 -9 14 23 23 39 10 10 -8 16 -9 21 -1 3 6 27 10 53 10 83 -2 110 13 77 40 -8 7 -15 10 -15 6 0 -3 -8 2 -18 12 -11 9 -32 25 -48 34 -67 40 -96 66 -166 150 -42 51 -63 81 -124 178 -47 74 -53 84 -64 108 -5 13 -24 45 -42 73 l-33 49 -231 0 -232 0 2 -40z"/>
 <path d="M3380 7475 c0 -8 9 -20 19 -27 10 -6 17 -17 15 -23 -6 -16 52 -78 68 -73 7 3 14 17 16 31 3 28 22 38 22 12 0 -7 8 -19 18 -24 9 -6 13 -11 8 -11 -17 0 17 -30 35 -30 11 0 18 -5 17 -12 -4 -15 51 -18 60 -3 17 25 42 37 55 26 19 -15 94 -23 102 -11 3 5 15 10 26 10 11 0 22 7 25 15 4 8 13 15 21 15 8 0 32 13 52 29 24 19 54 31 91 36 89 12 124 13 137 3 12 -10 53 22 53 42 0 7 -147 10 -420 10 -366 0 -420 -2 -420 -15z"/>
 <path d="M4143 7405 c-29 -14 -53 -29 -53 -35 0 -5 -7 -10 -16 -10 -15 0 -153 -82 -304 -180 -116 -76 -212 -129 -382 -213 -87 -43 -158 -84 -158 -91 0 -8 7 -19 15 -26 9 -7 14 -19 11 -26 -10 -26 41 -45 105 -40 68 6 96 -4 109 -39 6 -15 20 -27 37 -30 61 -13 75 -24 69 -50 -5 -19 -2 -27 11 -31 35 -11 48 -21 48 -40 0 -10 10 -23 23 -29 16 -7 22 -18 22 -42 0 -17 4 -34 9 -38 10 -6 41 49 41 74 1 13 2 13 11 -2 7 -12 17 -16 30 -12 11 4 19 2 19 -4 0 -6 -6 -10 -12 -8 -7 1 -13 -7 -13 -18 -1 -11 -4 -25 -8 -31 -4 -7 0 -17 8 -24 12 -10 16 -9 21 3 3 9 3 21 -1 27 -3 5 0 10 8 10 8 0 17 -7 21 -15 3 -8 11 -12 19 -9 17 6 89 -63 75 -72 -5 -3 -14 -17 -19 -31 -11 -31 6 -60 26 -43 9 8 17 4 28 -14 15 -22 15 -23 -1 -22 -28 2 -18 -55 13 -77 20 -15 23 -22 14 -33 -6 -8 -8 -14 -4 -14 4 0 2 -7 -5 -16 -19 -22 8 -48 39 -36 18 6 29 2 54 -21 30 -28 30 -29 13 -58 -9 -16 -16 -29 -14 -30 2 0 16 -2 32 -4 16 -2 34 -9 40 -15 6 -6 7 -10 1 -9 -19 6 -74 -31 -69 -45 3 -8 0 -17 -5 -21 -17 -10 -3 -25 17 -18 9 3 25 13 35 21 15 13 17 13 17 0 0 -8 9 -23 20 -33 21 -19 26 -50 10 -60 -5 -3 -14 -14 -20 -24 -13 -26 23 -71 56 -71 l25 0 -25 -33 c-26 -34 -26 -50 1 -40 8 3 21 -4 30 -17 8 -12 19 -18 24 -13 18 18 80 210 96 296 18 104 23 356 10 507 -5 52 -10 136 -11 187 -2 51 -8 98 -14 105 -6 8 -9 23 -6 34 3 11 0 62 -5 114 -6 52 -13 118 -16 145 -4 28 -12 75 -20 106 -7 30 -21 104 -30 163 -15 105 -28 146 -43 146 -4 -1 -31 -12 -59 -25z m-424 -799 c8 -10 9 -16 1 -21 -13 -8 -30 3 -30 21 0 18 14 18 29 0z"/>
 <path d="M0 3446 l0 -3446 2985 0 2985 0 0 3276 c0 3116 -1 3276 -17 3269 -10 -4 -61 -20 -113 -35 -52 -16 -156 -50 -230 -75 -223 -76 -478 -151 -593 -175 l-109 -23 -97 -81 c-53 -45 -114 -97 -136 -117 -22 -20 -74 -67 -116 -105 -42 -38 -124 -122 -183 -186 -58 -64 -111 -120 -116 -123 -6 -4 -8 -10 -5 -15 3 -4 -10 -7 -28 -6 -28 1 -32 -2 -32 -24 0 -14 5 -36 12 -49 9 -19 9 -28 -3 -46 -16 -25 -4 -43 19 -28 6 4 17 8 22 9 6 1 16 3 24 5 7 2 15 -5 17 -16 1 -11 10 -24 18 -31 11 -7 12 -14 5 -21 -8 -8 -5 -19 7 -39 14 -22 15 -26 3 -17 -13 10 -19 10 -35 -1 -26 -20 -6 -43 24 -27 16 8 21 7 26 -4 3 -8 16 -15 29 -15 13 0 31 -6 41 -13 16 -12 13 -15 -29 -36 -30 -15 -45 -28 -41 -37 4 -10 -2 -14 -19 -14 -30 0 -52 -34 -35 -55 7 -8 15 -14 18 -13 20 4 42 -16 37 -32 -3 -10 0 -22 7 -27 7 -4 13 -17 13 -28 0 -21 6 -22 40 -9 20 8 20 7 2 -19 -15 -23 -15 -28 -4 -33 8 -3 15 -16 15 -30 0 -14 10 -36 23 -50 13 -14 20 -24 14 -22 -5 2 -11 -2 -12 -7 -2 -6 8 -10 22 -9 28 0 32 -8 11 -25 -10 -9 -16 -9 -21 -1 -5 8 -15 4 -31 -11 -28 -26 -31 -47 -9 -55 9 -4 21 -16 27 -28 10 -18 9 -19 -4 -8 -19 15 -26 6 -23 -28 1 -14 8 -25 16 -25 8 0 14 -6 14 -13 0 -7 5 -16 11 -20 13 -8 24 -40 30 -89 5 -41 12 -55 24 -48 4 3 13 -2 20 -10 7 -8 31 -23 54 -33 45 -21 72 -47 58 -56 -6 -3 -13 1 -16 10 -6 14 -11 12 -36 -12 -16 -16 -30 -33 -30 -38 0 -9 51 -72 56 -68 2 1 13 -7 25 -19 20 -20 20 -22 4 -53 -24 -44 -17 -81 15 -81 51 0 161 -155 159 -223 0 -21 -4 -16 -15 19 -9 31 -27 58 -52 79 -20 17 -47 40 -58 51 -12 10 -29 19 -37 19 -8 0 -22 11 -31 25 -20 30 -37 32 -59 7 -20 -22 -21 -50 -5 -89 6 -15 12 -34 12 -40 1 -7 6 -12 11 -10 6 1 9 9 8 19 -1 9 4 19 12 22 15 5 78 -86 73 -107 -1 -7 12 -27 29 -46 30 -32 32 -39 32 -111 0 -65 -3 -81 -19 -95 -11 -10 -20 -26 -20 -37 0 -10 -5 -17 -11 -15 -7 1 -14 -12 -16 -29 -3 -27 2 -35 38 -59 50 -36 53 -33 94 89 28 81 29 83 42 59 7 -14 13 -35 13 -48 0 -12 6 -28 14 -35 8 -6 12 -18 9 -26 -3 -8 -1 -20 5 -27 6 -7 9 -52 8 -104 -3 -129 -27 -151 -101 -93 -21 17 -41 30 -45 30 -4 0 -19 11 -34 25 -15 14 -33 25 -41 25 -7 0 -15 5 -17 11 -7 21 -64 20 -82 0 -16 -17 -16 -24 -3 -75 14 -53 14 -57 -4 -66 -23 -13 -24 -41 -3 -82 9 -17 22 -54 30 -82 8 -28 18 -58 21 -66 3 -8 6 -51 8 -95 2 -44 4 -80 5 -80 1 0 3 -13 5 -30 2 -16 5 -34 6 -40 2 -5 -1 -30 -5 -55 -13 -67 -13 -71 6 -118 10 -24 16 -47 13 -51 -2 -5 0 -23 6 -42 17 -52 20 -368 4 -399 -7 -14 -10 -40 -7 -59 4 -28 2 -33 -11 -28 -22 8 -30 -8 -12 -23 16 -13 15 -34 -3 -67 -13 -24 -8 -48 17 -77 9 -10 15 -21 14 -25 -2 -3 2 -7 7 -7 6 -1 16 -2 23 -3 9 -1 8 -4 -2 -10 -18 -12 -23 -41 -10 -58 6 -7 8 -16 5 -21 -3 -6 1 -15 9 -22 8 -7 15 -22 15 -33 0 -20 0 -20 -15 -1 -8 10 -15 15 -16 9 -4 -31 -3 -41 5 -52 5 -8 4 -18 -3 -27 -6 -7 -8 -21 -5 -30 7 -19 -40 -76 -63 -76 -7 0 -24 -25 -38 -56 -21 -46 -28 -54 -39 -45 -11 9 -16 9 -22 0 -4 -7 1 -18 12 -26 18 -13 17 -13 -6 -11 -17 2 -25 -2 -26 -12 -1 -34 -16 -58 -39 -64 -13 -3 -40 -22 -59 -42 -19 -19 -40 -34 -48 -32 -7 1 -14 -1 -14 -6 -1 -4 -21 -28 -45 -52 -23 -24 -43 -53 -44 -64 -2 -21 -32 -60 -47 -60 -5 0 -5 8 0 18 11 23 10 52 -3 52 -5 0 -10 -6 -10 -13 -1 -22 -17 -39 -31 -33 -15 6 -98 -43 -89 -52 5 -6 -85 -72 -99 -72 -13 0 -110 -66 -127 -86 -20 -24 -72 -44 -115 -44 -33 0 -73 -10 -176 -45 -25 -9 -40 -9 -47 -2 -6 6 -22 7 -48 0 -24 -6 -48 -6 -64 -1 -13 5 -42 7 -64 3 -22 -3 -43 -6 -47 -6 -4 0 -21 -4 -37 -9 -17 -5 -48 -4 -72 1 -55 13 -137 -16 -192 -66 -34 -31 -77 -49 -63 -26 21 33 -91 38 -139 6 -24 -17 -50 -21 -159 -23 -142 -4 -131 -7 -271 73 -33 19 -93 51 -133 71 -51 25 -72 40 -70 52 2 9 -4 17 -12 17 -8 0 -44 36 -79 80 -35 44 -80 91 -99 105 -19 14 -53 41 -76 61 -22 20 -55 45 -72 55 -17 11 -53 46 -81 79 -27 33 -68 79 -91 101 -22 23 -43 53 -47 65 -5 13 -23 42 -41 65 -19 23 -34 46 -34 53 0 6 -20 36 -44 65 -47 57 -69 111 -64 149 1 14 -3 31 -10 40 -7 8 -11 19 -10 24 2 5 -12 24 -30 42 -24 25 -30 36 -22 46 7 9 5 19 -9 36 -18 22 -18 25 -3 42 16 18 15 20 -2 33 -15 10 -16 16 -7 27 9 11 8 17 -4 27 -11 9 -12 16 -5 25 8 9 8 15 0 20 -6 4 -9 13 -6 20 3 8 -2 19 -10 25 -8 7 -14 9 -14 4 0 -5 -5 -1 -11 9 -8 14 -5 22 15 38 16 12 23 25 19 32 -4 7 -6 19 -5 29 2 9 -2 19 -7 22 -12 8 -3 37 17 52 8 6 13 15 9 20 -3 5 -2 28 3 52 4 23 3 45 -1 48 -5 3 -6 11 -2 17 4 7 8 14 8 17 11 76 18 147 16 155 -7 25 -4 351 3 363 4 7 9 40 11 75 3 65 6 76 36 144 10 24 19 49 19 57 0 18 -26 39 -39 32 -5 -3 -1 12 10 34 21 43 17 87 -8 97 -9 4 -10 9 -3 17 7 9 5 19 -5 32 -15 19 -15 19 -30 0 -8 -10 -12 -23 -9 -28 3 -5 -2 -19 -13 -30 -17 -19 -113 -96 -140 -112 -25 -14 -32 28 -21 134 6 58 12 125 13 150 2 25 8 63 13 85 l9 40 8 -30 c13 -53 36 -129 46 -153 l9 -23 30 22 c38 28 56 76 37 98 -14 16 -28 45 -32 67 -2 6 -6 21 -9 32 -4 11 -2 23 4 27 8 5 6 13 -6 26 -16 17 -15 20 15 54 17 20 29 40 26 44 -2 5 2 14 10 21 8 7 15 19 15 26 0 25 24 15 42 -17 21 -36 38 -30 38 13 0 18 7 36 18 44 12 9 14 16 6 24 -7 7 -8 29 -2 67 11 70 7 81 -29 79 -40 -2 -53 -13 -53 -47 0 -24 -4 -29 -25 -29 -34 0 -73 -27 -96 -65 -18 -28 -19 -29 -19 -7 0 34 89 139 120 144 23 3 26 9 35 79 11 83 28 117 51 98 16 -13 16 -12 18 34 2 24 -5 38 -29 59 -16 14 -27 29 -23 34 14 14 103 32 114 23 14 -11 39 15 29 31 -4 6 -3 16 2 23 13 16 14 55 2 62 -11 7 -12 36 -1 34 21 -4 23 3 7 27 -16 25 -16 25 4 14 17 -9 22 -8 27 5 4 8 2 21 -3 28 -5 6 -10 26 -11 42 l-2 30 18 -23 c13 -17 20 -20 29 -11 6 6 9 17 7 24 -3 8 2 12 12 12 25 -3 34 42 16 71 -8 12 -12 25 -8 29 3 3 1 12 -4 18 -7 9 -6 16 5 25 14 12 14 15 -1 31 -15 17 -15 19 -1 19 25 0 31 19 12 40 -15 17 -15 18 2 16 10 0 17 5 15 12 -1 7 -3 25 -4 40 -2 38 -17 55 -34 41 -9 -7 -14 -7 -14 -1 0 17 25 31 47 26 11 -3 24 -1 27 5 9 14 -11 51 -26 48 -7 -1 -15 14 -18 33 -3 20 -9 41 -13 48 -5 6 -1 22 7 34 8 13 17 54 20 92 3 37 10 73 15 80 6 7 12 21 14 32 7 35 18 52 38 57 10 3 22 13 26 24 4 10 14 23 22 29 13 10 13 15 -5 39 -10 15 -24 36 -29 45 -6 10 -17 25 -24 33 -10 13 -9 17 8 26 11 7 23 26 27 46 5 28 10 34 28 32 13 -1 21 4 21 13 0 8 -8 14 -17 14 -13 -1 -18 6 -18 25 0 15 -23 59 -53 103 -65 96 -324 398 -341 398 -25 0 -416 113 -586 170 -182 60 -473 170 -644 243 -55 23 -104 44 -108 45 -4 2 -8 -1547 -8 -3442z m4428 1753 c10 -15 10 -24 2 -34 -7 -8 -9 -19 -5 -25 10 -15 -11 -12 -25 5 -6 8 -9 19 -6 24 4 5 2 13 -4 16 -8 5 -7 11 1 21 15 19 22 18 37 -7z m-275 -4134 c-6 -16 -50 -31 -60 -21 -4 3 1 6 10 6 9 0 21 9 27 20 12 23 32 18 23 -5z"/>
 <path d="M2880 6818 c-21 -35 -14 -55 15 -44 10 4 15 12 11 21 -4 11 0 15 11 13 24 -4 27 19 4 32 -18 9 -24 6 -41 -22z"/>
 <path d="M2146 6511 c-3 -5 0 -14 8 -20 10 -8 16 -8 25 2 6 8 8 17 4 20 -9 10 -31 9 -37 -2z"/>
 <path d="M3744 6429 c-10 -17 13 -36 27 -22 12 12 4 33 -11 33 -5 0 -12 -5 -16 -11z"/>
 <path d="M3805 6350 c-11 -17 5 -32 21 -19 7 6 11 15 8 20 -7 12 -21 11 -29 -1z"/>
 <path d="M1744 5789 c-10 -17 13 -36 27 -22 12 12 4 33 -11 33 -5 0 -12 -5 -16 -11z"/>
 <path d="M4155 5620 c-4 -6 -3 -16 3 -22 6 -6 12 -6 17 2 4 6 3 16 -3 22 -6 6 -12 6 -17 -2z"/>
 <path d="M1744 5566 c-4 -11 0 -24 9 -34 15 -14 17 -14 23 2 4 11 0 24 -9 34 -15 14 -17 14 -23 -2z"/>
 <path d="M1645 5290 c-10 -17 12 -37 25 -24 8 8 6 15 -4 23 -10 9 -16 9 -21 1z"/>
 <path d="M3420 4856 c-23 -23 -8 -57 48 -114 31 -33 72 -67 90 -76 32 -17 35 -17 53 0 15 14 18 27 15 68 -5 67 -11 80 -51 111 -29 21 -43 25 -90 23 -31 -2 -60 -7 -65 -12z"/>
 <path d="M2394 4836 c-5 -12 -40 -28 -69 -30 -16 -2 -17 -52 -1 -65 17 -14 89 2 119 27 20 17 22 53 5 70 -16 16 -47 15 -54 -2z"/>
 <path d="M1637 4803 c-7 -13 -1 -58 8 -56 11 4 16 51 5 58 -5 3 -11 2 -13 -2z"/>
 <path d="M1585 4730 c-4 -6 -3 -16 3 -22 6 -6 12 -6 17 2 4 6 3 16 -3 22 -6 6 -12 6 -17 -2z"/>
 <path d="M2899 4726 c-2 -3 -36 -7 -74 -9 -80 -6 -170 -42 -225 -92 -26 -23 -10 -45 33 -45 16 0 47 -5 68 -12 35 -10 45 -9 95 16 46 23 68 27 136 27 94 0 154 -7 222 -27 59 -17 100 -18 127 -3 20 10 20 11 -5 36 -29 29 -71 53 -92 53 -8 0 -22 4 -32 9 -65 33 -235 65 -253 47z"/>
 <path d="M4435 4610 c-4 -6 -3 -16 3 -22 6 -6 12 -6 17 2 4 6 3 16 -3 22 -6 6 -12 6 -17 -2z"/>
 <path d="M2901 4426 c-14 -16 -8 -21 36 -31 44 -9 59 2 37 26 -20 22 -57 25 -73 5z"/>
 <path d="M3454 4228 c-16 -12 -33 -25 -38 -29 -11 -10 51 -89 70 -89 26 0 64 47 64 79 0 23 -7 33 -32 45 -38 19 -30 20 -64 -6z"/>
 <path d="M2380 4233 c-14 -3 -33 -12 -43 -21 -17 -15 -16 -17 15 -49 36 -37 58 -31 58 17 0 20 6 29 21 33 12 3 18 10 14 16 -6 11 -20 12 -65 4z"/>
 <path d="M1986 4200 c-22 -11 -45 -20 -52 -20 -7 0 -19 -12 -26 -27 -12 -25 -20 -28 -66 -31 -29 -2 -51 1 -50 5 2 4 -1 8 -7 8 -5 0 -9 -4 -7 -9 2 -5 -6 -19 -18 -31 -11 -12 -19 -30 -18 -41 2 -10 -1 -19 -7 -19 -5 0 -10 15 -11 33 0 18 -5 37 -11 43 -12 12 -36 3 -28 -11 3 -5 1 -11 -4 -14 -5 -4 -5 -22 0 -45 9 -40 0 -83 -19 -95 -14 -8 5 -96 25 -118 16 -18 12 -33 -10 -33 -7 0 -12 -10 -11 -22 1 -27 -22 -18 -39 17 -7 12 -16 22 -21 21 -5 -1 -14 8 -20 21 -18 36 -38 28 -43 -15 -3 -32 0 -40 17 -44 22 -6 26 -18 10 -28 -5 -3 -10 -20 -10 -36 0 -22 6 -32 25 -39 14 -5 25 -16 25 -24 0 -25 -19 -28 -37 -6 -10 11 -25 20 -35 20 -15 0 -16 3 -6 19 16 26 -1 116 -22 116 -12 0 -15 -16 -17 -79 -1 -43 -7 -102 -14 -130 -7 -28 -12 -60 -11 -71 1 -11 -5 -33 -12 -50 -13 -29 -14 -131 -2 -255 2 -25 9 -102 16 -172 6 -70 9 -132 5 -138 -8 -14 14 -42 27 -34 5 3 4 -3 -3 -14 -10 -16 -10 -29 1 -64 17 -56 21 -79 25 -163 4 -85 14 -143 26 -151 5 -3 4 -14 -2 -25 -7 -15 -7 -24 1 -34 6 -8 10 -24 9 -37 -3 -23 53 -145 92 -199 11 -16 17 -29 14 -29 -4 0 3 -12 14 -26 12 -15 21 -32 21 -39 0 -7 13 -28 29 -48 15 -20 41 -62 56 -92 27 -57 58 -80 100 -76 12 1 38 -16 65 -43 32 -32 53 -46 73 -46 16 0 26 -4 23 -9 -8 -12 31 -44 56 -46 12 -1 28 -12 36 -23 8 -12 24 -22 36 -22 12 0 32 -7 44 -16 12 -8 22 -13 22 -10 0 3 16 -3 36 -14 19 -11 39 -18 44 -15 5 3 21 -2 35 -11 20 -13 28 -14 39 -4 10 7 21 8 33 2 21 -11 52 -10 73 3 7 5 32 8 55 6 22 -1 49 5 60 13 13 9 25 11 36 5 15 -8 85 0 136 16 16 5 21 3 20 -11 -2 -13 5 -18 21 -17 35 1 35 2 21 19 -12 15 -10 16 21 9 64 -14 86 -10 155 34 42 27 92 27 115 -1 15 -19 21 -21 41 -11 52 26 109 33 231 27 88 -4 128 -3 132 5 4 6 11 9 15 6 5 -2 29 6 55 20 45 24 46 24 56 5 10 -19 12 -19 36 -3 14 9 42 18 62 20 21 2 42 10 47 17 12 15 63 27 71 15 2 -5 16 -4 31 2 14 5 28 7 31 5 12 -12 136 80 127 94 -3 4 4 10 15 13 11 3 20 12 20 19 0 8 11 20 25 26 27 13 65 67 65 94 0 10 20 38 45 64 25 25 45 55 45 66 0 11 11 33 25 50 14 16 25 35 25 42 0 8 9 24 19 38 13 16 21 46 24 87 3 34 7 65 11 68 14 14 5 45 -14 50 -25 7 -26 19 0 33 10 6 17 17 14 24 -3 8 0 17 6 21 8 5 8 10 0 20 -9 11 -8 20 4 36 10 15 12 27 6 34 -6 7 -3 28 7 55 8 25 15 60 14 77 0 21 4 32 12 30 7 -1 12 5 12 13 0 8 -6 14 -13 12 -17 -3 -15 9 5 23 12 9 14 17 7 26 -6 8 -9 25 -8 39 3 49 15 276 18 358 1 46 -1 85 -6 88 -5 3 -6 9 -4 13 11 17 15 134 6 151 -7 13 -7 21 0 25 6 4 7 12 3 18 -10 17 -13 32 -18 121 -3 43 -12 92 -19 110 -8 17 -16 40 -18 51 -2 11 -7 18 -10 15 -16 -11 -38 42 -42 103 -5 68 -19 107 -37 107 -6 0 -8 9 -4 19 9 30 -15 37 -36 10 l-18 -24 -21 28 c-18 22 -29 27 -58 26 -21 -1 -52 5 -70 15 -22 11 -38 14 -45 8 -13 -10 -42 -9 -69 2 -21 10 -41 -1 -31 -17 9 -14 5 -59 -7 -70 -11 -12 -52 2 -44 14 9 16 -16 39 -43 39 -16 0 -42 -18 -76 -53 -29 -28 -65 -59 -82 -67 -16 -8 -47 -28 -67 -45 -21 -16 -54 -43 -75 -60 -20 -16 -43 -28 -52 -27 -8 2 -20 -3 -26 -11 -5 -8 -28 -23 -51 -35 l-40 -21 4 28 c4 29 -21 91 -37 91 -24 0 -142 -35 -189 -56 -56 -25 -88 -24 -127 2 -11 8 -32 14 -47 14 -15 0 -38 5 -52 11 -19 9 -29 9 -39 0 -8 -6 -25 -10 -38 -9 -13 1 -52 -15 -86 -35 -74 -45 -107 -46 -153 -9 -45 37 -76 50 -130 55 -14 2 -34 9 -46 16 l-21 14 20 75 19 75 -23 18 c-24 18 -24 18 -42 -6 -10 -14 -23 -23 -28 -20 -4 3 -14 -3 -21 -15 -8 -12 -23 -20 -39 -20 -24 0 -125 46 -155 71 -7 6 -20 9 -29 6 -8 -4 -17 -2 -20 3 -5 8 -93 71 -98 70 -1 -1 -20 -10 -41 -20z m627 -485 c23 -6 27 -12 27 -41 0 -19 0 -36 0 -39 0 -10 -15 0 -15 10 0 10 -16 30 -62 83 -13 14 -23 27 -23 30 0 3 10 -4 23 -16 12 -11 34 -24 50 -27z m-347 -131 c37 -8 81 -25 98 -37 24 -17 46 -21 112 -23 80 -1 83 -1 104 28 11 16 26 26 31 22 6 -3 8 -9 5 -12 -12 -11 38 -52 71 -58 19 -4 33 -12 33 -20 0 -8 11 -19 24 -25 13 -6 27 -23 30 -38 18 -70 28 -118 32 -141 11 -77 30 -114 69 -137 83 -49 102 -55 134 -39 35 19 56 61 83 171 18 73 27 93 65 135 28 31 53 50 67 50 12 0 38 9 59 20 21 11 42 18 47 15 10 -6 116 20 167 41 31 14 86 23 148 25 50 2 162 -14 181 -26 11 -7 41 -16 67 -20 25 -4 48 -12 50 -19 3 -7 24 -18 48 -26 44 -13 104 -52 125 -79 6 -7 23 -15 39 -17 39 -4 57 -12 51 -23 -7 -10 45 -51 63 -51 6 0 11 -5 11 -12 0 -6 7 -19 15 -28 8 -9 18 -38 21 -63 5 -37 3 -51 -11 -67 -11 -13 -16 -32 -15 -62 4 -67 1 -100 -9 -94 -11 7 -33 -18 -24 -27 3 -4 12 -2 20 4 10 9 13 3 14 -32 1 -50 -1 -82 -7 -88 -2 -2 -20 -5 -40 -5 -22 -1 -41 -9 -49 -20 -8 -10 -18 -15 -23 -12 -5 3 -28 -15 -52 -39 -24 -25 -48 -45 -52 -45 -5 0 -27 -14 -51 -31 -23 -17 -57 -37 -74 -44 -30 -13 -215 -33 -238 -26 -5 2 -21 3 -35 2 -25 0 -57 8 -206 53 -45 14 -110 28 -145 32 -35 4 -80 14 -99 22 -19 9 -40 15 -47 14 -6 -2 -19 8 -27 20 -9 13 -26 23 -39 23 -15 0 -22 6 -22 19 0 13 -8 20 -25 22 -53 8 -68 14 -73 34 -6 25 -42 27 -56 3 -7 -14 -25 -18 -82 -20 -60 -1 -75 -5 -88 -22 -11 -13 -31 -21 -60 -24 -28 -2 -49 -11 -57 -22 -8 -10 -24 -20 -36 -22 -48 -5 -133 -27 -142 -35 -6 -4 -19 -8 -29 -8 -11 0 -41 -11 -67 -24 -27 -13 -50 -22 -53 -20 -2 3 -41 -2 -86 -10 -45 -8 -94 -13 -109 -11 -148 14 -169 19 -202 43 -19 14 -39 32 -43 39 -4 7 -14 13 -21 13 -7 0 -30 15 -52 34 -21 18 -49 36 -62 40 -12 4 -20 12 -17 17 4 5 -1 12 -9 15 -16 6 -23 25 -8 23 22 -4 21 5 -6 39 -40 51 -51 74 -57 117 -2 21 -9 43 -15 50 -5 6 -7 15 -4 18 11 10 7 100 -5 127 -6 14 -20 39 -31 57 -11 18 -15 35 -10 38 6 4 3 17 -7 31 -20 32 -38 17 -23 -20 8 -21 7 -27 -2 -24 -12 4 -25 41 -35 107 -4 26 -2 32 8 29 8 -3 14 -11 14 -19 0 -7 10 -13 23 -13 12 0 21 4 20 9 -2 6 -7 8 -13 7 -5 -2 -7 0 -2 4 4 4 1 17 -7 30 -14 20 -14 22 12 20 15 -1 32 -4 38 -8 5 -4 28 -3 50 2 21 5 43 5 47 1 5 -5 34 5 65 20 31 16 70 29 85 29 16 0 43 7 60 15 33 15 239 72 269 74 9 1 47 -6 84 -15z m-700 -472 c-11 -10 -15 4 -8 28 l7 25 3 -23 c2 -13 1 -26 -2 -30z m2809 -442 c-2 -31 -15 -37 -15 -7 0 15 4 27 8 27 5 0 8 -9 7 -20z"/>
 <path d="M3615 3341 c-7 -12 12 -24 25 -16 11 7 4 25 -10 25 -5 0 -11 -4 -15 -9z"/>
 <path d="M3792 3288 c-16 -16 -15 -33 4 -48 12 -11 18 -10 32 3 15 16 15 18 -4 37 -15 16 -22 18 -32 8z"/>
 <path d="M4219 2910 c-1 -7 -6 -33 -10 -50 -5 -21 21 -19 35 2 8 14 7 22 -7 35 -9 9 -17 15 -18 13z"/>
 <path d="M1631 3986 c-7 -8 -8 -17 -3 -20 6 -3 15 1 21 8 7 8 8 17 3 20 -6 3 -15 -1 -21 -8z"/>
 <path d="M4571 3942 c-18 -25 -18 -32 -7 -48 19 -25 44 -4 42 36 -2 42 -11 45 -35 12z"/>
 <path d="M4558 1794 c-3 -2 4 -23 15 -45 12 -25 23 -37 29 -31 6 6 4 21 -6 40 -17 32 -30 45 -38 36z"/>
 <path d="M4547 1724 c-3 -4 -2 -15 3 -25 9 -16 17 -53 24 -114 2 -11 7 -18 12 -15 5 3 8 10 6 17 -1 6 2 14 7 17 6 4 4 25 -6 54 -17 50 -35 77 -46 66z"/>
 </g>

</svg>